<svg width="97" height="85" viewBox="0 0 97 85" fill="none" xmlns="http://www.w3.org/2000/svg">
<mask id="path-1-inside-1" fill="white">
<path d="M87.2632 45.7262C86.7108 45.6847 86.1623 45.411 85.7615 44.9213C84.994 43.9842 85.0516 42.6058 85.8901 41.8486L92.7265 35.6721C93.565 34.9142 94.8722 35.0614 95.6386 35.9975C96.4062 36.9342 96.3479 38.3126 95.5095 39.0702L88.6736 45.2467C88.2737 45.6083 87.767 45.764 87.2632 45.7262ZM88.2683 44.7518L88.2744 44.7523L88.2683 44.7518ZM94.0397 36.4965C93.8556 36.4827 93.6768 36.536 93.5372 36.6618L86.7007 42.8383C86.386 43.1229 86.3906 43.6724 86.7108 44.0637C87.0316 44.4547 87.5477 44.5412 87.863 44.2569L94.6988 38.0804C95.0135 37.7958 95.0095 37.2461 94.6893 36.8551C94.5107 36.6374 94.2712 36.5139 94.0397 36.4965Z"/>
</mask>
<path d="M87.2632 45.7262C86.7108 45.6847 86.1623 45.411 85.7615 44.9213C84.994 43.9842 85.0516 42.6058 85.8901 41.8486L92.7265 35.6721C93.565 34.9142 94.8722 35.0614 95.6386 35.9975C96.4062 36.9342 96.3479 38.3126 95.5095 39.0702L88.6736 45.2467C88.2737 45.6083 87.767 45.764 87.2632 45.7262ZM88.2683 44.7518L88.2744 44.7523L88.2683 44.7518ZM94.0397 36.4965C93.8556 36.4827 93.6768 36.536 93.5372 36.6618L86.7007 42.8383C86.386 43.1229 86.3906 43.6724 86.7108 44.0637C87.0316 44.4547 87.5477 44.5412 87.863 44.2569L94.6988 38.0804C95.0135 37.7958 95.0095 37.2461 94.6893 36.8551C94.5107 36.6374 94.2712 36.5139 94.0397 36.4965Z" fill="#E5E5E5"/>
<path d="M85.7615 44.9213L90.4046 41.1211L90.4033 41.1194L85.7615 44.9213ZM85.8901 41.8486L89.9115 46.3015L89.9124 46.3007L85.8901 41.8486ZM92.7265 35.6721L96.7488 40.1242L96.7497 40.1234L92.7265 35.6721ZM95.6386 35.9975L90.9962 39.7985L90.9976 39.8002L95.6386 35.9975ZM95.5095 39.0702L91.4872 34.6181L91.4869 34.6183L95.5095 39.0702ZM88.6736 45.2467L84.6511 40.7948L84.6495 40.7962L88.6736 45.2467ZM93.5372 36.6618L89.5201 32.205L89.5149 32.2097L93.5372 36.6618ZM86.7007 42.8383L82.6784 38.3862L82.6761 38.3883L86.7007 42.8383ZM86.7108 44.0637L82.0674 47.8635L82.0724 47.8696L86.7108 44.0637ZM87.863 44.2569L91.8806 48.7132L91.8855 48.7089L87.863 44.2569ZM94.6988 38.0804L98.7213 42.5323L98.7234 42.5304L94.6988 38.0804ZM94.6893 36.8551L99.3311 33.0532L99.3281 33.0496L94.6893 36.8551ZM87.7122 39.743C88.8358 39.8273 89.7896 40.3697 90.4046 41.1211L81.1185 48.7216C82.5351 50.4524 84.5857 51.5421 86.8142 51.7094L87.7122 39.743ZM90.4033 41.1194C91.4276 42.3701 91.7163 44.6715 89.9115 46.3015L81.8686 37.3957C78.3869 40.5401 78.5604 45.5984 81.1198 48.7232L90.4033 41.1194ZM89.9124 46.3007L96.7488 40.1242L88.7042 31.22L81.8678 37.3965L89.9124 46.3007ZM96.7497 40.1234C94.7348 41.9445 92.1281 41.181 90.9962 39.7985L100.281 32.1964C97.6163 28.9419 92.3953 27.884 88.7034 31.2208L96.7497 40.1234ZM90.9976 39.8002C89.9695 38.5455 89.6865 36.2449 91.4872 34.6181L99.5317 43.5223C103.009 40.3804 102.843 35.323 100.28 32.1947L90.9976 39.8002ZM91.4869 34.6183L84.6511 40.7948L92.6961 49.6986L99.532 43.5221L91.4869 34.6183ZM84.6495 40.7962C85.5328 39.9976 86.6672 39.6646 87.7122 39.743L86.8142 51.7094C88.8667 51.8634 91.0146 51.219 92.6977 49.6971L84.6495 40.7962ZM87.8193 50.735L87.8253 50.7354L88.7234 38.7691L88.7173 38.7686L87.8193 50.735ZM88.7234 38.7691L88.7173 38.7686L87.8193 50.735L87.8253 50.7354L88.7234 38.7691ZM94.4887 30.5133C92.8368 30.3894 90.9964 30.8744 89.5201 32.205L97.5542 41.1187C96.3572 42.1976 94.8743 42.576 93.5907 42.4797L94.4887 30.5133ZM89.5149 32.2097L82.6784 38.3862L90.723 47.2904L97.5595 41.1139L89.5149 32.2097ZM82.6761 38.3883C79.3386 41.4067 80.3279 45.7378 82.0674 47.8635L91.3542 40.2638C92.0434 41.106 92.4578 42.1881 92.4675 43.3613C92.4772 44.5314 92.0587 46.0824 90.7253 47.2883L82.6761 38.3883ZM82.0724 47.8696C83.8663 50.0559 88.2733 51.9655 91.8806 48.7132L83.8453 39.8007C86.8221 37.1169 90.197 38.8535 91.3492 40.2577L82.0724 47.8696ZM91.8855 48.7089L98.7213 42.5323L90.6763 33.6285L83.8405 39.805L91.8855 48.7089ZM98.7234 42.5304C102.055 39.5174 101.079 35.1872 99.3311 33.0532L90.0476 40.657C89.3551 39.8115 88.9412 38.7265 88.9323 37.5531C88.9235 36.3835 89.3425 34.8348 90.6742 33.6304L98.7234 42.5304ZM99.3281 33.0496C98.208 31.6842 96.5048 30.6646 94.4887 30.5133L93.5907 42.4797C92.0377 42.3631 90.8134 41.5905 90.0506 40.6606L99.3281 33.0496Z" fill="#466675" mask="url(#path-1-inside-1)"/>
<mask id="path-3-inside-2" fill="white">
<path d="M79.6135 36.3867C79.0611 36.3452 78.5127 36.0715 78.1119 35.5818C77.3443 34.6447 77.4019 33.2663 78.2404 32.5091L85.0768 26.3329C85.9154 25.5751 87.2208 25.7215 87.989 26.6577C88.7565 27.5951 88.6989 28.9735 87.8604 29.7307L81.024 35.9072C80.624 36.2688 80.1173 36.4245 79.6135 36.3867ZM86.3906 27.1574C86.2059 27.1435 86.0271 27.1968 85.8875 27.3227L79.0511 33.4988C78.7364 33.7834 78.741 34.3329 79.0612 34.7242C79.3814 35.1151 79.8986 35.2017 80.2133 34.9174L87.0498 28.741C87.3645 28.4564 87.3599 27.9069 87.0397 27.5156C86.861 27.2979 86.6216 27.1747 86.3906 27.1574Z"/>
</mask>
<path d="M79.6135 36.3867C79.0611 36.3452 78.5127 36.0715 78.1119 35.5818C77.3443 34.6447 77.4019 33.2663 78.2404 32.5091L85.0768 26.3329C85.9154 25.5751 87.2208 25.7215 87.989 26.6577C88.7565 27.5951 88.6989 28.9735 87.8604 29.7307L81.024 35.9072C80.624 36.2688 80.1173 36.4245 79.6135 36.3867ZM86.3906 27.1574C86.2059 27.1435 86.0271 27.1968 85.8875 27.3227L79.0511 33.4988C78.7364 33.7834 78.741 34.3329 79.0612 34.7242C79.3814 35.1151 79.8986 35.2017 80.2133 34.9174L87.0498 28.741C87.3645 28.4564 87.3599 27.9069 87.0397 27.5156C86.861 27.2979 86.6216 27.1747 86.3906 27.1574Z" fill="#E5E5E5"/>
<path d="M78.1119 35.5818L82.7549 31.7816L82.7536 31.7799L78.1119 35.5818ZM78.2404 32.5091L82.2618 36.962L82.2626 36.9613L78.2404 32.5091ZM85.0768 26.3329L89.099 30.7851L89.1 30.7842L85.0768 26.3329ZM87.989 26.6577L92.6314 22.8566L92.6272 22.8515L87.989 26.6577ZM87.8604 29.7307L83.839 25.2778L83.8381 25.2786L87.8604 29.7307ZM81.024 35.9072L77.0017 31.4551L76.9998 31.4567L81.024 35.9072ZM85.8875 27.3227L81.8704 22.8658L81.8653 22.8705L85.8875 27.3227ZM79.0511 33.4988L75.0289 29.0466L75.0265 29.0488L79.0511 33.4988ZM79.0612 34.7242L74.4178 38.524L74.4194 38.526L79.0612 34.7242ZM87.0498 28.741L91.0721 33.1931L91.0744 33.191L87.0498 28.741ZM87.0397 27.5156L91.6831 23.7158L91.6784 23.7101L87.0397 27.5156ZM80.0626 30.4035C81.1862 30.4878 82.1399 31.0302 82.7549 31.7816L73.4688 39.3821C74.8854 41.1129 76.9361 42.2026 79.1645 42.3699L80.0626 30.4035ZM82.7536 31.7799C83.7779 33.0306 84.0666 35.332 82.2618 36.962L74.219 28.0562C70.7373 31.2006 70.9107 36.2589 73.4701 39.3837L82.7536 31.7799ZM82.2626 36.9613L89.099 30.7851L81.0547 21.8807L74.2182 28.0569L82.2626 36.9613ZM89.1 30.7842C87.0851 32.6054 84.4799 31.8398 83.3507 30.4638L92.6272 22.8515C89.9617 19.6031 84.7457 18.5448 81.0537 21.8816L89.1 30.7842ZM83.3465 30.4587C82.3235 29.2091 82.0338 26.9081 83.839 25.2778L91.8818 34.1836C95.3639 31.0389 95.1895 25.981 92.6314 22.8566L83.3465 30.4587ZM83.8381 25.2786L77.0017 31.4551L85.0462 40.3593L91.8827 34.1828L83.8381 25.2786ZM76.9998 31.4567C77.8831 30.6581 79.0176 30.3251 80.0626 30.4035L79.1645 42.3699C81.2171 42.5239 83.3649 41.8795 85.0481 40.3576L76.9998 31.4567ZM86.8397 21.1742C85.1901 21.0504 83.3487 21.5334 81.8704 22.8658L89.9045 31.7795C88.7055 32.8602 87.2217 33.2366 85.9416 33.1406L86.8397 21.1742ZM81.8653 22.8705L75.0289 29.0466L83.0732 37.951L89.9097 31.7748L81.8653 22.8705ZM75.0265 29.0488C71.689 32.0672 72.6782 36.3983 74.4178 38.524L83.7046 30.9243C84.3937 31.7665 84.8081 32.8486 84.8178 34.0218C84.8275 35.1919 84.4091 36.7429 83.0757 37.9488L75.0265 29.0488ZM74.4194 38.526C76.2132 40.7161 80.6277 42.6292 84.2356 39.3695L76.191 30.4654C79.1696 27.7743 82.5495 29.5141 83.7029 30.9223L74.4194 38.526ZM84.2356 39.3695L91.0721 33.1931L83.0275 24.2889L76.191 30.4654L84.2356 39.3695ZM91.0744 33.191C94.4118 30.1726 93.4226 25.8415 91.6831 23.7158L82.3963 31.3155C81.7071 30.4733 81.2927 29.3912 81.283 28.218C81.2733 27.0479 81.6917 25.4969 83.0252 24.291L91.0744 33.191ZM91.6784 23.7101C90.5564 22.3424 88.8524 21.3253 86.8397 21.1742L85.9416 33.1406C84.3907 33.0242 83.1657 32.2534 82.4009 31.3211L91.6784 23.7101Z" fill="#466675" mask="url(#path-3-inside-2)"/>
<mask id="path-5-inside-3" fill="white">
<path d="M86.8844 42.4203C86.7191 42.4079 86.5663 42.3271 86.4588 42.1959L80.782 35.2648C80.5581 34.9914 80.5891 34.578 80.8514 34.3411L86.412 29.3172C86.5379 29.2035 86.7011 29.1465 86.8664 29.1589C87.0317 29.1713 87.1845 29.252 87.292 29.3833L92.9687 36.3144C93.1927 36.5878 93.1617 37.0012 92.8994 37.2381L87.3387 42.2619C87.2129 42.3757 87.0497 42.4327 86.8844 42.4203ZM82.1367 34.902L87.0027 40.8434L91.6141 36.6772L86.748 30.7358L82.1367 34.902Z"/>
</mask>
<path d="M86.8844 42.4203C86.7191 42.4079 86.5663 42.3271 86.4588 42.1959L80.782 35.2648C80.5581 34.9914 80.5891 34.578 80.8514 34.3411L86.412 29.3172C86.5379 29.2035 86.7011 29.1465 86.8664 29.1589C87.0317 29.1713 87.1845 29.252 87.292 29.3833L92.9687 36.3144C93.1927 36.5878 93.1617 37.0012 92.8994 37.2381L87.3387 42.2619C87.2129 42.3757 87.0497 42.4327 86.8844 42.4203ZM82.1367 34.902L87.0027 40.8434L91.6141 36.6772L86.748 30.7358L82.1367 34.902Z" fill="#E5E5E5"/>
<path d="M86.4588 42.1959L81.8169 45.9977L81.817 45.9978L86.4588 42.1959ZM80.782 35.2648L85.4239 31.463L85.4238 31.4629L80.782 35.2648ZM87.292 29.3833L91.9338 25.5815L91.9338 25.5814L87.292 29.3833ZM92.9687 36.3144L88.3269 40.1162L88.327 40.1163L92.9687 36.3144ZM87.3387 42.2619L83.3165 37.8098L83.3165 37.8098L87.3387 42.2619ZM82.1367 34.902L78.1144 30.4499L73.8731 34.2817L77.4948 38.7037L82.1367 34.902ZM87.0027 40.8434L82.3609 44.6451L86.3516 49.5177L91.025 45.2955L87.0027 40.8434ZM91.6141 36.6772L95.6364 41.1293L99.8777 37.2975L96.256 32.8754L91.6141 36.6772ZM86.748 30.7358L91.3899 26.934L87.3992 22.0614L82.7258 26.2837L86.748 30.7358ZM87.3334 36.4371C88.8543 36.5513 90.1993 37.2937 91.1005 38.394L81.817 45.9978C82.9332 47.3605 84.5839 48.2645 86.4354 48.4035L87.3334 36.4371ZM91.1006 38.3941L85.4239 31.463L76.1402 39.0665L81.8169 45.9977L91.1006 38.3941ZM85.4238 31.4629C87.228 33.6656 86.9864 36.8844 84.8737 38.7932L76.8291 29.889C74.1919 32.2716 73.8883 36.3171 76.1403 39.0667L85.4238 31.4629ZM84.8737 38.7932L90.4343 33.7693L82.3898 24.8651L76.8291 29.889L84.8737 38.7932ZM90.4343 33.7693C89.379 34.7228 87.9383 35.2562 86.4174 35.1421L87.3154 23.1757C85.4639 23.0368 83.6968 23.6843 82.3898 24.8651L90.4343 33.7693ZM86.4174 35.1421C84.8965 35.0279 83.5515 34.2854 82.6503 33.1852L91.9338 25.5814C90.8176 24.2187 89.1669 23.3147 87.3154 23.1757L86.4174 35.1421ZM82.6502 33.185L88.3269 40.1162L97.6106 32.5126L91.9338 25.5815L82.6502 33.185ZM88.327 40.1163C86.5228 37.9135 86.7644 34.6948 88.8771 32.786L96.9217 41.6902C99.5589 39.3076 99.8625 35.2621 97.6105 32.5125L88.327 40.1163ZM88.8771 32.786L83.3165 37.8098L91.361 46.714L96.9217 41.6902L88.8771 32.786ZM83.3165 37.8098C84.3718 36.8564 85.8125 36.323 87.3334 36.4371L86.4354 48.4035C88.2869 48.5424 90.054 47.8949 91.361 46.714L83.3165 37.8098ZM77.4948 38.7037L82.3609 44.6451L91.6446 37.0417L86.7785 31.1003L77.4948 38.7037ZM91.025 45.2955L95.6364 41.1293L87.5918 32.2251L82.9805 36.3913L91.025 45.2955ZM96.256 32.8754L91.3899 26.934L82.1062 34.5375L86.9723 40.4789L96.256 32.8754ZM82.7258 26.2837L78.1144 30.4499L86.1589 39.3541L90.7703 35.1879L82.7258 26.2837Z" fill="#466675" mask="url(#path-5-inside-3)"/>
<mask id="path-7-inside-4" fill="white">
<path d="M68.9401 52.6024C68.7808 52.5904 68.6264 52.5147 68.5144 52.378C68.2905 52.1046 68.3215 51.6912 68.5838 51.4543L83.6898 37.8066C83.952 37.5697 84.3458 37.5992 84.5697 37.8727C84.7937 38.1461 84.7627 38.5594 84.5004 38.7963L69.3944 52.444C69.2633 52.5625 69.0993 52.6143 68.9401 52.6024Z"/>
</mask>
<path d="M68.9401 52.6024C68.7808 52.5904 68.6264 52.5147 68.5144 52.378C68.2905 52.1046 68.3215 51.6912 68.5838 51.4543L83.6898 37.8066C83.952 37.5697 84.3458 37.5992 84.5697 37.8727C84.7937 38.1461 84.7627 38.5594 84.5004 38.7963L69.3944 52.444C69.2633 52.5625 69.0993 52.6143 68.9401 52.6024Z" fill="#E5E5E5"/>
<path d="M83.6898 37.8066L79.6675 33.3545L83.6898 37.8066ZM84.5004 38.7963L80.4781 34.3442L84.5004 38.7963ZM69.3891 46.6192C70.8475 46.7286 72.2156 47.4277 73.1562 48.5761L63.8727 56.1798C65.0373 57.6017 66.7142 58.4522 68.491 58.5855L69.3891 46.6192ZM73.1562 48.5761C74.9604 50.7788 74.7188 53.9976 72.6061 55.9064L64.5615 47.0022C61.9243 49.3848 61.6207 53.4303 63.8727 56.1798L73.1562 48.5761ZM72.6061 55.9064L87.7121 42.2587L79.6675 33.3545L64.5615 47.0022L72.6061 55.9064ZM87.7121 42.2587C85.4308 44.3198 81.8761 44.053 79.928 41.6745L89.2115 34.0708C86.8155 31.1455 82.4732 30.8196 79.6675 33.3545L87.7121 42.2587ZM79.928 41.6745C78.1238 39.4718 78.3654 36.253 80.4781 34.3442L88.5227 43.2484C91.1599 40.8658 91.4635 36.8203 89.2115 34.0708L79.928 41.6745ZM80.4781 34.3442L65.3721 47.9919L73.4167 56.8961L88.5227 43.2484L80.4781 34.3442ZM65.3721 47.9919C66.4736 46.9967 67.9307 46.5097 69.3891 46.6192L68.491 58.5855C70.2679 58.7189 72.053 58.1282 73.4167 56.8961L65.3721 47.9919Z" fill="#466675" mask="url(#path-7-inside-4)"/>
<mask id="path-9-inside-5" fill="white">
<path d="M61.5529 24.8989L61.5042 28.0763L59.4535 28.045C58.9096 28.0366 58.3842 28.2797 57.9927 28.7207C57.6013 29.1618 57.376 29.7646 57.3663 30.3966L57.342 31.9853C57.3401 32.2566 57.3786 32.526 57.4556 32.7816L56.6463 32.7692C56.1024 32.7609 55.5769 33.004 55.1855 33.445C54.7941 33.886 54.5687 34.4889 54.5591 35.1209L54.5348 36.7096C54.5251 37.3416 54.7319 37.9511 55.1096 38.4039C55.4874 38.8566 56.0051 39.1157 56.549 39.124L61.3341 39.1972L61.0667 56.6729L56.9652 56.6102C56.4213 56.6019 55.8959 56.845 55.5045 57.286C55.113 57.727 54.8877 58.3298 54.878 58.9619L54.8537 60.5506C54.8441 61.1826 55.0508 61.792 55.4286 62.2448C55.8063 62.6976 56.3241 62.9567 56.868 62.965L57.6774 62.9774C57.5925 63.2305 57.5458 63.4986 57.5394 63.7698L57.5151 65.3585C57.5054 65.9905 57.7122 66.6 58.09 67.0528C58.4677 67.5056 58.9855 67.7646 59.5294 67.7729L60.8965 67.7938L60.8479 70.9712C60.8447 71.1819 60.9136 71.3851 61.0396 71.536C61.1655 71.6869 61.3381 71.7733 61.5194 71.7761L68.3551 71.8806C68.5364 71.8834 68.7116 71.8024 68.8421 71.6554C68.9725 71.5084 69.0476 71.3074 69.0509 71.0968L69.0995 67.9194L71.1502 67.9507C71.6941 67.9591 72.2196 67.716 72.611 67.2749C73.0024 66.8339 73.2277 66.2311 73.2374 65.5991L73.2617 64.0104C73.2636 63.7391 73.2252 63.4697 73.1481 63.2141L73.2739 63.216C73.8178 63.2243 74.3432 62.9812 74.7346 62.5402C75.1261 62.0992 75.3514 61.4964 75.3611 60.8643L75.3854 59.2756C75.395 58.6436 75.1883 58.0342 74.8105 57.5814C74.4328 57.1286 73.915 56.8695 73.3711 56.8612L69.2696 56.7984L69.537 39.3227L72.9549 39.375C73.4988 39.3834 74.0242 39.1403 74.4157 38.6992C74.8071 38.2582 75.0324 37.6554 75.0421 37.0234L75.0664 35.4347C75.0761 34.8026 74.8693 34.1932 74.4915 33.7404C74.1138 33.2876 73.596 33.0286 73.0521 33.0202L72.9264 33.0183C73.0112 32.7652 73.0579 32.4971 73.0643 32.2259L73.0886 30.6372C73.0983 30.0052 72.8915 29.3957 72.5137 28.9429C72.136 28.4901 71.6182 28.2311 71.0743 28.2228L69.7072 28.2018L69.7558 25.0244C69.759 24.8138 69.6901 24.6106 69.5642 24.4597C69.4382 24.3088 69.2657 24.2224 69.0844 24.2196L62.2486 24.115C62.0673 24.1123 61.8921 24.1933 61.7617 24.3403C61.6312 24.4873 61.5561 24.6883 61.5529 24.8989ZM67.6959 70.2815L62.2272 70.1978L62.2637 67.8148L67.7323 67.8984L67.6959 70.2815ZM71.8946 63.9894L71.8703 65.5781C71.867 65.7888 71.7919 65.9898 71.6614 66.1368C71.531 66.2838 71.3558 66.3648 71.1745 66.362L59.5537 66.1842C59.3724 66.1815 59.1998 66.0951 59.0739 65.9442C58.948 65.7932 58.8791 65.5901 58.8823 65.3794L58.9066 63.7907C58.9098 63.58 58.9849 63.3791 59.1154 63.2321C59.2459 63.0851 59.421 63.0041 59.6023 63.0068L71.2231 63.1846C71.4044 63.1874 71.577 63.2738 71.7029 63.4247C71.8289 63.5756 71.8978 63.7788 71.8946 63.9894ZM73.3468 58.4499C73.5281 58.4527 73.7007 58.539 73.8266 58.69C73.9525 58.8409 74.0214 59.044 74.0182 59.2547L73.9939 60.8434C73.9907 61.0541 73.9156 61.255 73.7851 61.402C73.6546 61.549 73.4795 61.6301 73.2982 61.6273L56.8923 61.3763C56.711 61.3735 56.5384 61.2872 56.4125 61.1362C56.2866 60.9853 56.2177 60.7822 56.2209 60.5715L56.2452 58.9828C56.2484 58.7721 56.3235 58.5712 56.454 58.4242C56.5845 58.2771 56.7596 58.1961 56.9409 58.1989L73.3468 58.4499ZM67.9025 56.7775L62.4339 56.6939L62.7012 39.2182L68.1699 39.3018L67.9025 56.7775ZM73.0278 34.6089C73.2091 34.6117 73.3817 34.6981 73.5076 34.849C73.6336 34.9999 73.7025 35.2031 73.6993 35.4137L73.6749 37.0024C73.6717 37.2131 73.5966 37.4141 73.4661 37.5611C73.3357 37.7081 73.1605 37.7891 72.9792 37.7863L56.5733 37.5353C56.392 37.5325 56.2195 37.4462 56.0935 37.2953C55.9676 37.1443 55.8987 36.9412 55.9019 36.7305L55.9262 35.1418C55.9295 34.9311 56.0046 34.7302 56.135 34.5832C56.2655 34.4362 56.4407 34.3551 56.622 34.3579L73.0278 34.6089ZM71.05 29.8115C71.2313 29.8142 71.4039 29.9006 71.5298 30.0515C71.6557 30.2024 71.7247 30.4056 71.7214 30.6163L71.6971 32.205C71.6939 32.4156 71.6188 32.6166 71.4883 32.7636C71.3579 32.9106 71.1827 32.9916 71.0014 32.9889L59.3806 32.8111C59.1993 32.8083 59.0267 32.7219 58.9008 32.571C58.7749 32.4201 58.7059 32.2169 58.7092 32.0062L58.7335 30.4175C58.7367 30.2069 58.8118 30.0059 58.9423 29.8589C59.0727 29.7119 59.2479 29.6309 59.4292 29.6337L71.05 29.8115ZM68.3765 25.7979L68.34 28.1809L62.8714 28.0972L62.9079 25.7142L68.3765 25.7979Z"/>
</mask>
<path d="M61.5529 24.8989L61.5042 28.0763L59.4535 28.045C58.9096 28.0366 58.3842 28.2797 57.9927 28.7207C57.6013 29.1618 57.376 29.7646 57.3663 30.3966L57.342 31.9853C57.3401 32.2566 57.3786 32.526 57.4556 32.7816L56.6463 32.7692C56.1024 32.7609 55.5769 33.004 55.1855 33.445C54.7941 33.886 54.5687 34.4889 54.5591 35.1209L54.5348 36.7096C54.5251 37.3416 54.7319 37.9511 55.1096 38.4039C55.4874 38.8566 56.0051 39.1157 56.549 39.124L61.3341 39.1972L61.0667 56.6729L56.9652 56.6102C56.4213 56.6019 55.8959 56.845 55.5045 57.286C55.113 57.727 54.8877 58.3298 54.878 58.9619L54.8537 60.5506C54.8441 61.1826 55.0508 61.792 55.4286 62.2448C55.8063 62.6976 56.3241 62.9567 56.868 62.965L57.6774 62.9774C57.5925 63.2305 57.5458 63.4986 57.5394 63.7698L57.5151 65.3585C57.5054 65.9905 57.7122 66.6 58.09 67.0528C58.4677 67.5056 58.9855 67.7646 59.5294 67.7729L60.8965 67.7938L60.8479 70.9712C60.8447 71.1819 60.9136 71.3851 61.0396 71.536C61.1655 71.6869 61.3381 71.7733 61.5194 71.7761L68.3551 71.8806C68.5364 71.8834 68.7116 71.8024 68.8421 71.6554C68.9725 71.5084 69.0476 71.3074 69.0509 71.0968L69.0995 67.9194L71.1502 67.9507C71.6941 67.9591 72.2196 67.716 72.611 67.2749C73.0024 66.8339 73.2277 66.2311 73.2374 65.5991L73.2617 64.0104C73.2636 63.7391 73.2252 63.4697 73.1481 63.2141L73.2739 63.216C73.8178 63.2243 74.3432 62.9812 74.7346 62.5402C75.1261 62.0992 75.3514 61.4964 75.3611 60.8643L75.3854 59.2756C75.395 58.6436 75.1883 58.0342 74.8105 57.5814C74.4328 57.1286 73.915 56.8695 73.3711 56.8612L69.2696 56.7984L69.537 39.3227L72.9549 39.375C73.4988 39.3834 74.0242 39.1403 74.4157 38.6992C74.8071 38.2582 75.0324 37.6554 75.0421 37.0234L75.0664 35.4347C75.0761 34.8026 74.8693 34.1932 74.4915 33.7404C74.1138 33.2876 73.596 33.0286 73.0521 33.0202L72.9264 33.0183C73.0112 32.7652 73.0579 32.4971 73.0643 32.2259L73.0886 30.6372C73.0983 30.0052 72.8915 29.3957 72.5137 28.9429C72.136 28.4901 71.6182 28.2311 71.0743 28.2228L69.7072 28.2018L69.7558 25.0244C69.759 24.8138 69.6901 24.6106 69.5642 24.4597C69.4382 24.3088 69.2657 24.2224 69.0844 24.2196L62.2486 24.115C62.0673 24.1123 61.8921 24.1933 61.7617 24.3403C61.6312 24.4873 61.5561 24.6883 61.5529 24.8989ZM67.6959 70.2815L62.2272 70.1978L62.2637 67.8148L67.7323 67.8984L67.6959 70.2815ZM71.8946 63.9894L71.8703 65.5781C71.867 65.7888 71.7919 65.9898 71.6614 66.1368C71.531 66.2838 71.3558 66.3648 71.1745 66.362L59.5537 66.1842C59.3724 66.1815 59.1998 66.0951 59.0739 65.9442C58.948 65.7932 58.8791 65.5901 58.8823 65.3794L58.9066 63.7907C58.9098 63.58 58.9849 63.3791 59.1154 63.2321C59.2459 63.0851 59.421 63.0041 59.6023 63.0068L71.2231 63.1846C71.4044 63.1874 71.577 63.2738 71.7029 63.4247C71.8289 63.5756 71.8978 63.7788 71.8946 63.9894ZM73.3468 58.4499C73.5281 58.4527 73.7007 58.539 73.8266 58.69C73.9525 58.8409 74.0214 59.044 74.0182 59.2547L73.9939 60.8434C73.9907 61.0541 73.9156 61.255 73.7851 61.402C73.6546 61.549 73.4795 61.6301 73.2982 61.6273L56.8923 61.3763C56.711 61.3735 56.5384 61.2872 56.4125 61.1362C56.2866 60.9853 56.2177 60.7822 56.2209 60.5715L56.2452 58.9828C56.2484 58.7721 56.3235 58.5712 56.454 58.4242C56.5845 58.2771 56.7596 58.1961 56.9409 58.1989L73.3468 58.4499ZM67.9025 56.7775L62.4339 56.6939L62.7012 39.2182L68.1699 39.3018L67.9025 56.7775ZM73.0278 34.6089C73.2091 34.6117 73.3817 34.6981 73.5076 34.849C73.6336 34.9999 73.7025 35.2031 73.6993 35.4137L73.6749 37.0024C73.6717 37.2131 73.5966 37.4141 73.4661 37.5611C73.3357 37.7081 73.1605 37.7891 72.9792 37.7863L56.5733 37.5353C56.392 37.5325 56.2195 37.4462 56.0935 37.2953C55.9676 37.1443 55.8987 36.9412 55.9019 36.7305L55.9262 35.1418C55.9295 34.9311 56.0046 34.7302 56.135 34.5832C56.2655 34.4362 56.4407 34.3551 56.622 34.3579L73.0278 34.6089ZM71.05 29.8115C71.2313 29.8142 71.4039 29.9006 71.5298 30.0515C71.6557 30.2024 71.7247 30.4056 71.7214 30.6163L71.6971 32.205C71.6939 32.4156 71.6188 32.6166 71.4883 32.7636C71.3579 32.9106 71.1827 32.9916 71.0014 32.9889L59.3806 32.8111C59.1993 32.8083 59.0267 32.7219 58.9008 32.571C58.7749 32.4201 58.7059 32.2169 58.7092 32.0062L58.7335 30.4175C58.7367 30.2069 58.8118 30.0059 58.9423 29.8589C59.0727 29.7119 59.2479 29.6309 59.4292 29.6337L71.05 29.8115ZM68.3765 25.7979L68.34 28.1809L62.8714 28.0972L62.9079 25.7142L68.3765 25.7979Z" fill="#E5E5E5" stroke="#466675" stroke-width="12" mask="url(#path-9-inside-5)"/>
<path d="M77.0439 50.8303L77.0654 50.8528C77.0514 50.8379 77.0372 50.823 77.0228 50.8081L77.0328 50.8186C77.0473 50.8336 77.0529 50.8397 77.0439 50.8303Z" fill="#E5E5E5" stroke="#466675" stroke-width="6"/>
<path d="M52.352 64.56L53.3459 64.4496L53.2518 63.6027L52.4007 63.5612L52.352 64.56ZM52.352 66.928V67.928H53.257L53.347 67.0275L52.352 66.928ZM36.8 66.928L35.805 67.0275L35.895 67.928H36.8V66.928ZM36.8 64.56L36.6624 63.5695L35.892 63.6765L35.8061 64.4496L36.8 64.56ZM40.256 63.6L40.7416 64.4742L40.7598 64.4641L40.7775 64.4533L40.256 63.6ZM41.344 61.296L42.3432 61.256L42.3428 61.2472L41.344 61.296ZM39.936 32.496L40.9348 32.4472L38.9988 32.1473L39.936 32.496ZM37.888 38L38.817 38.37L38.8213 38.3594L38.8252 38.3487L37.888 38ZM26.368 66.928V67.928H27.0461L27.297 67.298L26.368 66.928ZM24.512 66.928L23.5707 67.2654L23.8082 67.928H24.512V66.928ZM12.032 32.112L12.9734 31.7746L11.0345 32.0415L12.032 32.112ZM9.792 63.792L8.79449 63.7215L8.74229 64.4597L9.43302 64.7253L9.792 63.792ZM14.528 64.56L15.5255 64.6312L15.5989 63.6038L14.5696 63.5609L14.528 64.56ZM14.208 66.928V67.928H15.0491L15.1932 67.0993L14.208 66.928ZM1.216 66.928L0.219185 66.8483L0.132805 67.928H1.216V66.928ZM1.536 64.56L1.39458 63.5701L0.728938 63.6651L0.565858 64.3175L1.536 64.56ZM6.144 61.04L5.1462 60.9738L5.14547 60.9847L5.14499 60.9956L6.144 61.04ZM8.192 30.192L9.1898 30.2582L9.23793 29.5333L8.56339 29.2635L8.192 30.192ZM4.8 29.488L3.81361 29.6524L3.94791 30.4582L4.76431 30.4874L4.8 29.488ZM5.056 27.12V26.12H4.43797L4.16157 26.6728L5.056 27.12ZM16.128 27.12L17.0705 26.7859L16.8345 26.12H16.128V27.12ZM26.496 56.368L25.5535 56.7021L26.4467 59.2219L27.4264 56.7345L26.496 56.368ZM38.016 27.12V26.12H37.3351L37.0856 26.7535L38.016 27.12ZM48.704 27.12L49.6741 26.8775L49.4848 26.12H48.704V27.12ZM48.896 29.424L49.0064 30.4179L49.896 30.319V29.424H48.896ZM46.336 30.384L47.0143 31.1188L47.0143 31.1188L46.336 30.384ZM45.568 32.88L44.5687 32.917L44.5692 32.9316L44.5702 32.9462L45.568 32.88ZM47.616 63.728L46.6182 63.7942L46.6627 64.4643L47.2998 64.6767L47.616 63.728ZM51.3581 64.6704C51.3967 65.018 51.416 65.3651 51.416 65.712H53.416C53.416 65.2909 53.3926 64.87 53.3459 64.4496L51.3581 64.6704ZM51.416 65.712C51.416 66.0592 51.3967 66.4311 51.357 66.8285L53.347 67.0275C53.3926 66.5715 53.416 66.1328 53.416 65.712H51.416ZM52.352 65.928H36.8V67.928H52.352V65.928ZM37.795 66.8285C37.7553 66.4311 37.736 66.0592 37.736 65.712H35.736C35.736 66.1328 35.7594 66.5715 35.805 67.0275L37.795 66.8285ZM37.736 65.712C37.736 65.3651 37.7553 65.018 37.7939 64.6704L35.8061 64.4496C35.7594 64.87 35.736 65.2909 35.736 65.712H37.736ZM36.9376 65.5505C38.5169 65.3311 39.8131 64.99 40.7416 64.4742L39.7704 62.7258C39.1629 63.0633 38.1551 63.3622 36.6624 63.5695L36.9376 65.5505ZM40.7775 64.4533C41.918 63.7563 42.3971 62.6046 42.3432 61.256L40.3448 61.336C40.3762 62.1207 40.13 62.505 39.7346 62.7467L40.7775 64.4533ZM42.3428 61.2472L40.9348 32.4472L38.9372 32.5448L40.3452 61.3448L42.3428 61.2472ZM38.9988 32.1473L36.9508 37.6513L38.8252 38.3487L40.8732 32.8447L38.9988 32.1473ZM36.959 37.63L25.439 66.558L27.297 67.298L38.817 38.37L36.959 37.63ZM26.368 65.928H24.512V67.928H26.368V65.928ZM25.4534 66.5906L12.9734 31.7746L11.0907 32.4494L23.5707 67.2654L25.4534 66.5906ZM11.0345 32.0415L8.79449 63.7215L10.7895 63.8625L13.0295 32.1825L11.0345 32.0415ZM9.43302 64.7253C10.6916 65.2094 12.3964 65.4721 14.4864 65.5591L14.5696 63.5609C12.5636 63.4773 11.1111 63.2279 10.151 62.8587L9.43302 64.7253ZM13.5305 64.4888C13.4913 65.0379 13.3909 65.7899 13.2228 66.7567L15.1932 67.0993C15.3664 66.1035 15.4793 65.2768 15.5255 64.6312L13.5305 64.4888ZM14.208 65.928H1.216V67.928H14.208V65.928ZM2.21282 67.0077C2.29726 65.9522 2.39907 65.2308 2.50614 64.8025L0.565858 64.3175C0.416933 64.9132 0.305407 65.7705 0.219185 66.8483L2.21282 67.0077ZM1.67742 65.5499C3.25377 65.3248 4.57546 64.8877 5.53504 64.1547C6.53677 63.3895 7.08711 62.3421 7.14301 61.0844L5.14499 60.9956C5.11555 61.6579 4.85523 62.1572 4.32096 62.5653C3.74454 63.0056 2.8049 63.3686 1.39458 63.5701L1.67742 65.5499ZM7.1418 61.1062L9.1898 30.2582L7.1942 30.1258L5.1462 60.9738L7.1418 61.1062ZM8.56339 29.2635C7.38544 28.7923 6.14078 28.5352 4.83569 28.4886L4.76431 30.4874C5.84856 30.5261 6.86523 30.7383 7.82061 31.1205L8.56339 29.2635ZM5.78639 29.3236C5.75668 29.1453 5.736 28.8658 5.736 28.464H3.736C3.736 28.9155 3.75799 29.3187 3.81361 29.6524L5.78639 29.3236ZM5.736 28.464C5.736 28.1525 5.80534 27.8574 5.95043 27.5672L4.16157 26.6728C3.87999 27.2359 3.736 27.8368 3.736 28.464H5.736ZM5.056 28.12H16.128V26.12H5.056V28.12ZM15.1855 27.4541L25.5535 56.7021L27.4385 56.0339L17.0705 26.7859L15.1855 27.4541ZM27.4264 56.7345L38.9464 27.4865L37.0856 26.7535L25.5656 56.0015L27.4264 56.7345ZM38.016 28.12H48.704V26.12H38.016V28.12ZM47.7339 27.3625C47.8465 27.8131 47.896 28.1997 47.896 28.528H49.896C49.896 28.003 49.8175 27.4509 49.6741 26.8775L47.7339 27.3625ZM47.896 28.528C47.896 28.5287 47.896 28.5295 47.896 28.5302C47.896 28.531 47.896 28.5317 47.896 28.5325C47.896 28.5332 47.896 28.534 47.896 28.5347C47.896 28.5355 47.896 28.5362 47.896 28.537C47.896 28.5377 47.896 28.5385 47.896 28.5392C47.896 28.54 47.896 28.5407 47.896 28.5415C47.896 28.5422 47.896 28.543 47.896 28.5437C47.896 28.5444 47.896 28.5452 47.896 28.5459C47.896 28.5467 47.896 28.5474 47.896 28.5482C47.896 28.5489 47.896 28.5497 47.896 28.5504C47.896 28.5511 47.896 28.5519 47.896 28.5526C47.896 28.5534 47.896 28.5541 47.896 28.5549C47.896 28.5556 47.896 28.5563 47.896 28.5571C47.896 28.5578 47.896 28.5586 47.896 28.5593C47.896 28.56 47.896 28.5608 47.896 28.5615C47.896 28.5623 47.896 28.563 47.896 28.5637C47.896 28.5645 47.896 28.5652 47.896 28.566C47.896 28.5667 47.896 28.5674 47.896 28.5682C47.896 28.5689 47.896 28.5697 47.896 28.5704C47.896 28.5711 47.896 28.5719 47.896 28.5726C47.896 28.5733 47.896 28.5741 47.896 28.5748C47.896 28.5756 47.896 28.5763 47.896 28.577C47.896 28.5778 47.896 28.5785 47.896 28.5792C47.896 28.58 47.896 28.5807 47.896 28.5814C47.896 28.5822 47.896 28.5829 47.896 28.5836C47.896 28.5844 47.896 28.5851 47.896 28.5858C47.896 28.5866 47.896 28.5873 47.896 28.588C47.896 28.5888 47.896 28.5895 47.896 28.5902C47.896 28.591 47.896 28.5917 47.896 28.5924C47.896 28.5932 47.896 28.5939 47.896 28.5946C47.896 28.5954 47.896 28.5961 47.896 28.5968C47.896 28.5975 47.896 28.5983 47.896 28.599C47.896 28.5997 47.896 28.6005 47.896 28.6012C47.896 28.6019 47.896 28.6026 47.896 28.6034C47.896 28.6041 47.896 28.6048 47.896 28.6056C47.896 28.6063 47.896 28.607 47.896 28.6077C47.896 28.6085 47.896 28.6092 47.896 28.6099C47.896 28.6106 47.896 28.6114 47.896 28.6121C47.896 28.6128 47.896 28.6135 47.896 28.6143C47.896 28.615 47.896 28.6157 47.896 28.6164C47.896 28.6172 47.896 28.6179 47.896 28.6186C47.896 28.6193 47.896 28.6201 47.896 28.6208C47.896 28.6215 47.896 28.6222 47.896 28.6229C47.896 28.6237 47.896 28.6244 47.896 28.6251C47.896 28.6258 47.896 28.6266 47.896 28.6273C47.896 28.628 47.896 28.6287 47.896 28.6294C47.896 28.6302 47.896 28.6309 47.896 28.6316C47.896 28.6323 47.896 28.633 47.896 28.6337C47.896 28.6345 47.896 28.6352 47.896 28.6359C47.896 28.6366 47.896 28.6373 47.896 28.6381C47.896 28.6388 47.896 28.6395 47.896 28.6402C47.896 28.6409 47.896 28.6416 47.896 28.6424C47.896 28.6431 47.896 28.6438 47.896 28.6445C47.896 28.6452 47.896 28.6459 47.896 28.6467C47.896 28.6474 47.896 28.6481 47.896 28.6488C47.896 28.6495 47.896 28.6502 47.896 28.6509C47.896 28.6517 47.896 28.6524 47.896 28.6531C47.896 28.6538 47.896 28.6545 47.896 28.6552C47.896 28.6559 47.896 28.6566 47.896 28.6573C47.896 28.6581 47.896 28.6588 47.896 28.6595C47.896 28.6602 47.896 28.6609 47.896 28.6616C47.896 28.6623 47.896 28.663 47.896 28.6637C47.896 28.6645 47.896 28.6652 47.896 28.6659C47.896 28.6666 47.896 28.6673 47.896 28.668C47.896 28.6687 47.896 28.6694 47.896 28.6701C47.896 28.6708 47.896 28.6715 47.896 28.6722C47.896 28.673 47.896 28.6737 47.896 28.6744C47.896 28.6751 47.896 28.6758 47.896 28.6765C47.896 28.6772 47.896 28.6779 47.896 28.6786C47.896 28.6793 47.896 28.68 47.896 28.6807C47.896 28.6814 47.896 28.6821 47.896 28.6828C47.896 28.6835 47.896 28.6842 47.896 28.6849C47.896 28.6856 47.896 28.6863 47.896 28.687C47.896 28.6877 47.896 28.6884 47.896 28.6892C47.896 28.6899 47.896 28.6906 47.896 28.6913C47.896 28.692 47.896 28.6927 47.896 28.6934C47.896 28.6941 47.896 28.6948 47.896 28.6955C47.896 28.6962 47.896 28.6969 47.896 28.6976C47.896 28.6983 47.896 28.699 47.896 28.6997C47.896 28.7004 47.896 28.7011 47.896 28.7017C47.896 28.7024 47.896 28.7031 47.896 28.7038C47.896 28.7045 47.896 28.7052 47.896 28.7059C47.896 28.7066 47.896 28.7073 47.896 28.708C47.896 28.7087 47.896 28.7094 47.896 28.7101C47.896 28.7108 47.896 28.7115 47.896 28.7122C47.896 28.7129 47.896 28.7136 47.896 28.7143C47.896 28.715 47.896 28.7157 47.896 28.7164C47.896 28.7171 47.896 28.7177 47.896 28.7184C47.896 28.7191 47.896 28.7198 47.896 28.7205C47.896 28.7212 47.896 28.7219 47.896 28.7226C47.896 28.7233 47.896 28.724 47.896 28.7247C47.896 28.7254 47.896 28.726 47.896 28.7267C47.896 28.7274 47.896 28.7281 47.896 28.7288C47.896 28.7295 47.896 28.7302 47.896 28.7309C47.896 28.7316 47.896 28.7322 47.896 28.7329C47.896 28.7336 47.896 28.7343 47.896 28.735C47.896 28.7357 47.896 28.7364 47.896 28.7371C47.896 28.7377 47.896 28.7384 47.896 28.7391C47.896 28.7398 47.896 28.7405 47.896 28.7412C47.896 28.7419 47.896 28.7425 47.896 28.7432C47.896 28.7439 47.896 28.7446 47.896 28.7453C47.896 28.746 47.896 28.7467 47.896 28.7473C47.896 28.748 47.896 28.7487 47.896 28.7494C47.896 28.7501 47.896 28.7508 47.896 28.7514C47.896 28.7521 47.896 28.7528 47.896 28.7535C47.896 28.7542 47.896 28.7548 47.896 28.7555C47.896 28.7562 47.896 28.7569 47.896 28.7576C47.896 28.7582 47.896 28.7589 47.896 28.7596C47.896 28.7603 47.896 28.761 47.896 28.7616C47.896 28.7623 47.896 28.763 47.896 28.7637C47.896 28.7644 47.896 28.765 47.896 28.7657C47.896 28.7664 47.896 28.7671 47.896 28.7677C47.896 28.7684 47.896 28.7691 47.896 28.7698C47.896 28.7705 47.896 28.7711 47.896 28.7718C47.896 28.7725 47.896 28.7732 47.896 28.7738C47.896 28.7745 47.896 28.7752 47.896 28.7759C47.896 28.7765 47.896 28.7772 47.896 28.7779C47.896 28.7786 47.896 28.7792 47.896 28.7799C47.896 28.7806 47.896 28.7812 47.896 28.7819C47.896 28.7826 47.896 28.7833 47.896 28.7839C47.896 28.7846 47.896 28.7853 47.896 28.786C47.896 28.7866 47.896 28.7873 47.896 28.788C47.896 28.7886 47.896 28.7893 47.896 28.79C47.896 28.7906 47.896 28.7913 47.896 28.792C47.896 28.7927 47.896 28.7933 47.896 28.794C47.896 28.7947 47.896 28.7953 47.896 28.796C47.896 28.7967 47.896 28.7973 47.896 28.798C47.896 28.7987 47.896 28.7993 47.896 28.8C47.896 28.8007 47.896 28.8013 47.896 28.802C47.896 28.8027 47.896 28.8033 47.896 28.804C47.896 28.8047 47.896 28.8053 47.896 28.806C47.896 28.8067 47.896 28.8073 47.896 28.808C47.896 28.8086 47.896 28.8093 47.896 28.81C47.896 28.8106 47.896 28.8113 47.896 28.812C47.896 28.8126 47.896 28.8133 47.896 28.814C47.896 28.8146 47.896 28.8153 47.896 28.8159C47.896 28.8166 47.896 28.8173 47.896 28.8179C47.896 28.8186 47.896 28.8192 47.896 28.8199C47.896 28.8206 47.896 28.8212 47.896 28.8219C47.896 28.8225 47.896 28.8232 47.896 28.8239C47.896 28.8245 47.896 28.8252 47.896 28.8258C47.896 28.8265 47.896 28.8271 47.896 28.8278C47.896 28.8285 47.896 28.8291 47.896 28.8298C47.896 28.8304 47.896 28.8311 47.896 28.8317C47.896 28.8324 47.896 28.8331 47.896 28.8337C47.896 28.8344 47.896 28.835 47.896 28.8357C47.896 28.8363 47.896 28.837 47.896 28.8376C47.896 28.8383 47.896 28.839 47.896 28.8396C47.896 28.8403 47.896 28.8409 47.896 28.8416C47.896 28.8422 47.896 28.8429 47.896 28.8435C47.896 28.8442 47.896 28.8448 47.896 28.8455C47.896 28.8461 47.896 28.8468 47.896 28.8474C47.896 28.8481 47.896 28.8487 47.896 28.8494C47.896 28.85 47.896 28.8507 47.896 28.8513C47.896 28.852 47.896 28.8526 47.896 28.8533C47.896 28.8539 47.896 28.8546 47.896 28.8552C47.896 28.8559 47.896 28.8565 47.896 28.8572C47.896 28.8578 47.896 28.8585 47.896 28.8591C47.896 28.8598 47.896 28.8604 47.896 28.8611C47.896 28.8617 47.896 28.8624 47.896 28.863C47.896 28.8636 47.896 28.8643 47.896 28.8649C47.896 28.8656 47.896 28.8662 47.896 28.8669C47.896 28.8675 47.896 28.8682 47.896 28.8688C47.896 28.8694 47.896 28.8701 47.896 28.8707C47.896 28.8714 47.896 28.872 47.896 28.8727C47.896 28.8733 47.896 28.8739 47.896 28.8746C47.896 28.8752 47.896 28.8759 47.896 28.8765C47.896 28.8772 47.896 28.8778 47.896 28.8784C47.896 28.8791 47.896 28.8797 47.896 28.8804C47.896 28.881 47.896 28.8816 47.896 28.8823C47.896 28.8829 47.896 28.8836 47.896 28.8842C47.896 28.8848 47.896 28.8855 47.896 28.8861C47.896 28.8867 47.896 28.8874 47.896 28.888C47.896 28.8887 47.896 28.8893 47.896 28.8899C47.896 28.8906 47.896 28.8912 47.896 28.8918C47.896 28.8925 47.896 28.8931 47.896 28.8937C47.896 28.8944 47.896 28.895 47.896 28.8957C47.896 28.8963 47.896 28.8969 47.896 28.8976C47.896 28.8982 47.896 28.8988 47.896 28.8995C47.896 28.9001 47.896 28.9007 47.896 28.9014C47.896 28.902 47.896 28.9026 47.896 28.9033C47.896 28.9039 47.896 28.9045 47.896 28.9052C47.896 28.9058 47.896 28.9064 47.896 28.907C47.896 28.9077 47.896 28.9083 47.896 28.9089C47.896 28.9096 47.896 28.9102 47.896 28.9108C47.896 28.9115 47.896 28.9121 47.896 28.9127C47.896 28.9133 47.896 28.914 47.896 28.9146C47.896 28.9152 47.896 28.9159 47.896 28.9165C47.896 28.9171 47.896 28.9177 47.896 28.9184C47.896 28.919 47.896 28.9196 47.896 28.9202C47.896 28.9209 47.896 28.9215 47.896 28.9221C47.896 28.9227 47.896 28.9234 47.896 28.924C47.896 28.9246 47.896 28.9252 47.896 28.9259C47.896 28.9265 47.896 28.9271 47.896 28.9277C47.896 28.9284 47.896 28.929 47.896 28.9296C47.896 28.9302 47.896 28.9309 47.896 28.9315C47.896 28.9321 47.896 28.9327 47.896 28.9333C47.896 28.934 47.896 28.9346 47.896 28.9352C47.896 28.9358 47.896 28.9365 47.896 28.9371C47.896 28.9377 47.896 28.9383 47.896 28.9389C47.896 28.9396 47.896 28.9402 47.896 28.9408C47.896 28.9414 47.896 28.942 47.896 28.9427C47.896 28.9433 47.896 28.9439 47.896 28.9445C47.896 28.9451 47.896 28.9457 47.896 28.9464C47.896 28.947 47.896 28.9476 47.896 28.9482C47.896 28.9488 47.896 28.9494 47.896 28.9501C47.896 28.9507 47.896 28.9513 47.896 28.9519C47.896 28.9525 47.896 28.9531 47.896 28.9537C47.896 28.9544 47.896 28.955 47.896 28.9556C47.896 28.9562 47.896 28.9568 47.896 28.9574C47.896 28.958 47.896 28.9587 47.896 28.9593C47.896 28.9599 47.896 28.9605 47.896 28.9611C47.896 28.9617 47.896 28.9623 47.896 28.9629C47.896 28.9636 47.896 28.9642 47.896 28.9648C47.896 28.9654 47.896 28.966 47.896 28.9666C47.896 28.9672 47.896 28.9678 47.896 28.9684C47.896 28.969 47.896 28.9697 47.896 28.9703C47.896 28.9709 47.896 28.9715 47.896 28.9721C47.896 28.9727 47.896 28.9733 47.896 28.9739C47.896 28.9745 47.896 28.9751 47.896 28.9757C47.896 28.9763 47.896 28.9769 47.896 28.9776C47.896 28.9782 47.896 28.9788 47.896 28.9794C47.896 28.98 47.896 28.9806 47.896 28.9812C47.896 28.9818 47.896 28.9824 47.896 28.983C47.896 28.9836 47.896 28.9842 47.896 28.9848C47.896 28.9854 47.896 28.986 47.896 28.9866C47.896 28.9872 47.896 28.9878 47.896 28.9884C47.896 28.989 47.896 28.9896 47.896 28.9902C47.896 28.9908 47.896 28.9914 47.896 28.992C47.896 28.9926 47.896 28.9932 47.896 28.9938C47.896 28.9944 47.896 28.995 47.896 28.9956C47.896 28.9962 47.896 28.9968 47.896 28.9974C47.896 28.998 47.896 28.9986 47.896 28.9992C47.896 28.9998 47.896 29.0004 47.896 29.001C47.896 29.0016 47.896 29.0022 47.896 29.0028C47.896 29.0034 47.896 29.004 47.896 29.0046C47.896 29.0052 47.896 29.0058 47.896 29.0064C47.896 29.007 47.896 29.0076 47.896 29.0082C47.896 29.0088 47.896 29.0094 47.896 29.01C47.896 29.0106 47.896 29.0112 47.896 29.0117C47.896 29.0123 47.896 29.0129 47.896 29.0135C47.896 29.0141 47.896 29.0147 47.896 29.0153C47.896 29.0159 47.896 29.0165 47.896 29.0171C47.896 29.0177 47.896 29.0183 47.896 29.0189C47.896 29.0194 47.896 29.02 47.896 29.0206C47.896 29.0212 47.896 29.0218 47.896 29.0224C47.896 29.023 47.896 29.0236 47.896 29.0242C47.896 29.0248 47.896 29.0253 47.896 29.0259C47.896 29.0265 47.896 29.0271 47.896 29.0277C47.896 29.0283 47.896 29.0289 47.896 29.0295C47.896 29.0301 47.896 29.0306 47.896 29.0312C47.896 29.0318 47.896 29.0324 47.896 29.033C47.896 29.0336 47.896 29.0342 47.896 29.0347C47.896 29.0353 47.896 29.0359 47.896 29.0365C47.896 29.0371 47.896 29.0377 47.896 29.0382C47.896 29.0388 47.896 29.0394 47.896 29.04C47.896 29.0406 47.896 29.0412 47.896 29.0417C47.896 29.0423 47.896 29.0429 47.896 29.0435C47.896 29.0441 47.896 29.0447 47.896 29.0452C47.896 29.0458 47.896 29.0464 47.896 29.047C47.896 29.0476 47.896 29.0481 47.896 29.0487C47.896 29.0493 47.896 29.0499 47.896 29.0505C47.896 29.051 47.896 29.0516 47.896 29.0522C47.896 29.0528 47.896 29.0534 47.896 29.0539C47.896 29.0545 47.896 29.0551 47.896 29.0557C47.896 29.0562 47.896 29.0568 47.896 29.0574C47.896 29.058 47.896 29.0586 47.896 29.0591C47.896 29.0597 47.896 29.0603 47.896 29.0609C47.896 29.0614 47.896 29.062 47.896 29.0626C47.896 29.0632 47.896 29.0637 47.896 29.0643C47.896 29.0649 47.896 29.0655 47.896 29.066C47.896 29.0666 47.896 29.0672 47.896 29.0677C47.896 29.0683 47.896 29.0689 47.896 29.0695C47.896 29.07 47.896 29.0706 47.896 29.0712C47.896 29.0718 47.896 29.0723 47.896 29.0729C47.896 29.0735 47.896 29.074 47.896 29.0746C47.896 29.0752 47.896 29.0757 47.896 29.0763C47.896 29.0769 47.896 29.0775 47.896 29.078C47.896 29.0786 47.896 29.0792 47.896 29.0797C47.896 29.0803 47.896 29.0809 47.896 29.0814C47.896 29.082 47.896 29.0826 47.896 29.0831C47.896 29.0837 47.896 29.0843 47.896 29.0848C47.896 29.0854 47.896 29.086 47.896 29.0865C47.896 29.0871 47.896 29.0877 47.896 29.0882C47.896 29.0888 47.896 29.0894 47.896 29.0899C47.896 29.0905 47.896 29.0911 47.896 29.0916C47.896 29.0922 47.896 29.0927 47.896 29.0933C47.896 29.0939 47.896 29.0944 47.896 29.095C47.896 29.0956 47.896 29.0961 47.896 29.0967C47.896 29.0972 47.896 29.0978 47.896 29.0984C47.896 29.0989 47.896 29.0995 47.896 29.1001C47.896 29.1006 47.896 29.1012 47.896 29.1017C47.896 29.1023 47.896 29.1029 47.896 29.1034C47.896 29.104 47.896 29.1045 47.896 29.1051C47.896 29.1056 47.896 29.1062 47.896 29.1068C47.896 29.1073 47.896 29.1079 47.896 29.1084C47.896 29.109 47.896 29.1095 47.896 29.1101C47.896 29.1107 47.896 29.1112 47.896 29.1118C47.896 29.1123 47.896 29.1129 47.896 29.1134C47.896 29.114 47.896 29.1146 47.896 29.1151C47.896 29.1157 47.896 29.1162 47.896 29.1168C47.896 29.1173 47.896 29.1179 47.896 29.1184C47.896 29.119 47.896 29.1195 47.896 29.1201C47.896 29.1206 47.896 29.1212 47.896 29.1217C47.896 29.1223 47.896 29.1229 47.896 29.1234C47.896 29.124 47.896 29.1245 47.896 29.1251C47.896 29.1256 47.896 29.1262 47.896 29.1267C47.896 29.1273 47.896 29.1278 47.896 29.1284C47.896 29.1289 47.896 29.1295 47.896 29.13C47.896 29.1306 47.896 29.1311 47.896 29.1317C47.896 29.1322 47.896 29.1327 47.896 29.1333C47.896 29.1338 47.896 29.1344 47.896 29.1349C47.896 29.1355 47.896 29.136 47.896 29.1366C47.896 29.1371 47.896 29.1377 47.896 29.1382C47.896 29.1388 47.896 29.1393 47.896 29.1398C47.896 29.1404 47.896 29.1409 47.896 29.1415C47.896 29.142 47.896 29.1426 47.896 29.1431C47.896 29.1437 47.896 29.1442 47.896 29.1447C47.896 29.1453 47.896 29.1458 47.896 29.1464C47.896 29.1469 47.896 29.1475 47.896 29.148C47.896 29.1485 47.896 29.1491 47.896 29.1496C47.896 29.1502 47.896 29.1507 47.896 29.1512C47.896 29.1518 47.896 29.1523 47.896 29.1529C47.896 29.1534 47.896 29.1539 47.896 29.1545C47.896 29.155 47.896 29.1556 47.896 29.1561C47.896 29.1566 47.896 29.1572 47.896 29.1577C47.896 29.1583 47.896 29.1588 47.896 29.1593C47.896 29.1599 47.896 29.1604 47.896 29.1609C47.896 29.1615 47.896 29.162 47.896 29.1625C47.896 29.1631 47.896 29.1636 47.896 29.1642C47.896 29.1647 47.896 29.1652 47.896 29.1658C47.896 29.1663 47.896 29.1668 47.896 29.1674C47.896 29.1679 47.896 29.1684 47.896 29.169C47.896 29.1695 47.896 29.17 47.896 29.1706C47.896 29.1711 47.896 29.1716 47.896 29.1722C47.896 29.1727 47.896 29.1732 47.896 29.1737C47.896 29.1743 47.896 29.1748 47.896 29.1753C47.896 29.1759 47.896 29.1764 47.896 29.1769C47.896 29.1775 47.896 29.178 47.896 29.1785C47.896 29.179 47.896 29.1796 47.896 29.1801C47.896 29.1806 47.896 29.1812 47.896 29.1817C47.896 29.1822 47.896 29.1827 47.896 29.1833C47.896 29.1838 47.896 29.1843 47.896 29.1849C47.896 29.1854 47.896 29.1859 47.896 29.1864C47.896 29.187 47.896 29.1875 47.896 29.188C47.896 29.1885 47.896 29.1891 47.896 29.1896C47.896 29.1901 47.896 29.1906 47.896 29.1912C47.896 29.1917 47.896 29.1922 47.896 29.1927C47.896 29.1933 47.896 29.1938 47.896 29.1943C47.896 29.1948 47.896 29.1953 47.896 29.1959C47.896 29.1964 47.896 29.1969 47.896 29.1974C47.896 29.198 47.896 29.1985 47.896 29.199C47.896 29.1995 47.896 29.2 47.896 29.2006C47.896 29.2011 47.896 29.2016 47.896 29.2021C47.896 29.2026 47.896 29.2032 47.896 29.2037C47.896 29.2042 47.896 29.2047 47.896 29.2052C47.896 29.2058 47.896 29.2063 47.896 29.2068C47.896 29.2073 47.896 29.2078 47.896 29.2083C47.896 29.2089 47.896 29.2094 47.896 29.2099C47.896 29.2104 47.896 29.2109 47.896 29.2114C47.896 29.212 47.896 29.2125 47.896 29.213C47.896 29.2135 47.896 29.214 47.896 29.2145C47.896 29.215 47.896 29.2156 47.896 29.2161C47.896 29.2166 47.896 29.2171 47.896 29.2176C47.896 29.2181 47.896 29.2186 47.896 29.2191C47.896 29.2197 47.896 29.2202 47.896 29.2207C47.896 29.2212 47.896 29.2217 47.896 29.2222C47.896 29.2227 47.896 29.2232 47.896 29.2237C47.896 29.2243 47.896 29.2248 47.896 29.2253C47.896 29.2258 47.896 29.2263 47.896 29.2268C47.896 29.2273 47.896 29.2278 47.896 29.2283C47.896 29.2288 47.896 29.2293 47.896 29.2299C47.896 29.2304 47.896 29.2309 47.896 29.2314C47.896 29.2319 47.896 29.2324 47.896 29.2329C47.896 29.2334 47.896 29.2339 47.896 29.2344C47.896 29.2349 47.896 29.2354 47.896 29.2359C47.896 29.2364 47.896 29.2369 47.896 29.2375C47.896 29.238 47.896 29.2385 47.896 29.239C47.896 29.2395 47.896 29.24 47.896 29.2405C47.896 29.241 47.896 29.2415 47.896 29.242C47.896 29.2425 47.896 29.243 47.896 29.2435C47.896 29.244 47.896 29.2445 47.896 29.245C47.896 29.2455 47.896 29.246 47.896 29.2465C47.896 29.247 47.896 29.2475 47.896 29.248C47.896 29.2485 47.896 29.249 47.896 29.2495C47.896 29.25 47.896 29.2505 47.896 29.251C47.896 29.2515 47.896 29.252 47.896 29.2525C47.896 29.253 47.896 29.2535 47.896 29.254C47.896 29.2545 47.896 29.255 47.896 29.2555C47.896 29.256 47.896 29.2565 47.896 29.257C47.896 29.2575 47.896 29.258 47.896 29.2585C47.896 29.2589 47.896 29.2594 47.896 29.2599C47.896 29.2604 47.896 29.2609 47.896 29.2614C47.896 29.2619 47.896 29.2624 47.896 29.2629C47.896 29.2634 47.896 29.2639 47.896 29.2644C47.896 29.2649 47.896 29.2654 47.896 29.2659C47.896 29.2664 47.896 29.2668 47.896 29.2673C47.896 29.2678 47.896 29.2683 47.896 29.2688C47.896 29.2693 47.896 29.2698 47.896 29.2703C47.896 29.2708 47.896 29.2713 47.896 29.2717C47.896 29.2722 47.896 29.2727 47.896 29.2732C47.896 29.2737 47.896 29.2742 47.896 29.2747C47.896 29.2752 47.896 29.2757 47.896 29.2761C47.896 29.2766 47.896 29.2771 47.896 29.2776C47.896 29.2781 47.896 29.2786 47.896 29.2791C47.896 29.2796 47.896 29.28 47.896 29.2805C47.896 29.281 47.896 29.2815 47.896 29.282C47.896 29.2825 47.896 29.283 47.896 29.2834C47.896 29.2839 47.896 29.2844 47.896 29.2849C47.896 29.2854 47.896 29.2859 47.896 29.2863C47.896 29.2868 47.896 29.2873 47.896 29.2878C47.896 29.2883 47.896 29.2888 47.896 29.2892C47.896 29.2897 47.896 29.2902 47.896 29.2907C47.896 29.2912 47.896 29.2916 47.896 29.2921C47.896 29.2926 47.896 29.2931 47.896 29.2936C47.896 29.294 47.896 29.2945 47.896 29.295C47.896 29.2955 47.896 29.296 47.896 29.2964C47.896 29.2969 47.896 29.2974 47.896 29.2979C47.896 29.2983 47.896 29.2988 47.896 29.2993C47.896 29.2998 47.896 29.3003 47.896 29.3007C47.896 29.3012 47.896 29.3017 47.896 29.3022C47.896 29.3026 47.896 29.3031 47.896 29.3036C47.896 29.3041 47.896 29.3045 47.896 29.305C47.896 29.3055 47.896 29.306 47.896 29.3064C47.896 29.3069 47.896 29.3074 47.896 29.3079C47.896 29.3083 47.896 29.3088 47.896 29.3093C47.896 29.3097 47.896 29.3102 47.896 29.3107C47.896 29.3112 47.896 29.3116 47.896 29.3121C47.896 29.3126 47.896 29.3131 47.896 29.3135C47.896 29.314 47.896 29.3145 47.896 29.3149C47.896 29.3154 47.896 29.3159 47.896 29.3163C47.896 29.3168 47.896 29.3173 47.896 29.3177C47.896 29.3182 47.896 29.3187 47.896 29.3192C47.896 29.3196 47.896 29.3201 47.896 29.3206C47.896 29.321 47.896 29.3215 47.896 29.322C47.896 29.3224 47.896 29.3229 47.896 29.3234C47.896 29.3238 47.896 29.3243 47.896 29.3248C47.896 29.3252 47.896 29.3257 47.896 29.3262C47.896 29.3266 47.896 29.3271 47.896 29.3275C47.896 29.328 47.896 29.3285 47.896 29.3289C47.896 29.3294 47.896 29.3299 47.896 29.3303C47.896 29.3308 47.896 29.3313 47.896 29.3317C47.896 29.3322 47.896 29.3326 47.896 29.3331C47.896 29.3336 47.896 29.334 47.896 29.3345C47.896 29.3349 47.896 29.3354 47.896 29.3359C47.896 29.3363 47.896 29.3368 47.896 29.3372C47.896 29.3377 47.896 29.3382 47.896 29.3386C47.896 29.3391 47.896 29.3395 47.896 29.34C47.896 29.3405 47.896 29.3409 47.896 29.3414C47.896 29.3418 47.896 29.3423 47.896 29.3427C47.896 29.3432 47.896 29.3437 47.896 29.3441C47.896 29.3446 47.896 29.345 47.896 29.3455C47.896 29.3459 47.896 29.3464 47.896 29.3468C47.896 29.3473 47.896 29.3478 47.896 29.3482C47.896 29.3487 47.896 29.3491 47.896 29.3496C47.896 29.35 47.896 29.3505 47.896 29.3509C47.896 29.3514 47.896 29.3518 47.896 29.3523C47.896 29.3527 47.896 29.3532 47.896 29.3537C47.896 29.3541 47.896 29.3546 47.896 29.355C47.896 29.3555 47.896 29.3559 47.896 29.3564C47.896 29.3568 47.896 29.3573 47.896 29.3577C47.896 29.3582 47.896 29.3586 47.896 29.3591C47.896 29.3595 47.896 29.36 47.896 29.3604C47.896 29.3609 47.896 29.3613 47.896 29.3617C47.896 29.3622 47.896 29.3626 47.896 29.3631C47.896 29.3635 47.896 29.364 47.896 29.3644C47.896 29.3649 47.896 29.3653 47.896 29.3658C47.896 29.3662 47.896 29.3667 47.896 29.3671C47.896 29.3676 47.896 29.368 47.896 29.3684C47.896 29.3689 47.896 29.3693 47.896 29.3698C47.896 29.3702 47.896 29.3707 47.896 29.3711C47.896 29.3716 47.896 29.372 47.896 29.3724C47.896 29.3729 47.896 29.3733 47.896 29.3738C47.896 29.3742 47.896 29.3746 47.896 29.3751C47.896 29.3755 47.896 29.376 47.896 29.3764C47.896 29.3769 47.896 29.3773 47.896 29.3777C47.896 29.3782 47.896 29.3786 47.896 29.3791C47.896 29.3795 47.896 29.3799 47.896 29.3804C47.896 29.3808 47.896 29.3812 47.896 29.3817C47.896 29.3821 47.896 29.3826 47.896 29.383C47.896 29.3834 47.896 29.3839 47.896 29.3843C47.896 29.3847 47.896 29.3852 47.896 29.3856C47.896 29.3861 47.896 29.3865 47.896 29.3869C47.896 29.3874 47.896 29.3878 47.896 29.3882C47.896 29.3887 47.896 29.3891 47.896 29.3895C47.896 29.39 47.896 29.3904 47.896 29.3908C47.896 29.3913 47.896 29.3917 47.896 29.3921C47.896 29.3926 47.896 29.393 47.896 29.3934C47.896 29.3939 47.896 29.3943 47.896 29.3947C47.896 29.3952 47.896 29.3956 47.896 29.396C47.896 29.3965 47.896 29.3969 47.896 29.3973C47.896 29.3977 47.896 29.3982 47.896 29.3986C47.896 29.399 47.896 29.3995 47.896 29.3999C47.896 29.4003 47.896 29.4008 47.896 29.4012C47.896 29.4016 47.896 29.402 47.896 29.4025C47.896 29.4029 47.896 29.4033 47.896 29.4037C47.896 29.4042 47.896 29.4046 47.896 29.405C47.896 29.4055 47.896 29.4059 47.896 29.4063C47.896 29.4067 47.896 29.4072 47.896 29.4076C47.896 29.408 47.896 29.4084 47.896 29.4089C47.896 29.4093 47.896 29.4097 47.896 29.4101C47.896 29.4106 47.896 29.411 47.896 29.4114C47.896 29.4118 47.896 29.4122 47.896 29.4127C47.896 29.4131 47.896 29.4135 47.896 29.4139C47.896 29.4144 47.896 29.4148 47.896 29.4152C47.896 29.4156 47.896 29.416 47.896 29.4165C47.896 29.4169 47.896 29.4173 47.896 29.4177C47.896 29.4181 47.896 29.4186 47.896 29.419C47.896 29.4194 47.896 29.4198 47.896 29.4202C47.896 29.4207 47.896 29.4211 47.896 29.4215C47.896 29.4219 47.896 29.4223 47.896 29.4227C47.896 29.4232 47.896 29.4236 47.896 29.424H49.896C49.896 29.4236 49.896 29.4232 49.896 29.4227C49.896 29.4223 49.896 29.4219 49.896 29.4215C49.896 29.4211 49.896 29.4207 49.896 29.4202C49.896 29.4198 49.896 29.4194 49.896 29.419C49.896 29.4186 49.896 29.4181 49.896 29.4177C49.896 29.4173 49.896 29.4169 49.896 29.4165C49.896 29.416 49.896 29.4156 49.896 29.4152C49.896 29.4148 49.896 29.4144 49.896 29.4139C49.896 29.4135 49.896 29.4131 49.896 29.4127C49.896 29.4122 49.896 29.4118 49.896 29.4114C49.896 29.411 49.896 29.4106 49.896 29.4101C49.896 29.4097 49.896 29.4093 49.896 29.4089C49.896 29.4084 49.896 29.408 49.896 29.4076C49.896 29.4072 49.896 29.4067 49.896 29.4063C49.896 29.4059 49.896 29.4055 49.896 29.405C49.896 29.4046 49.896 29.4042 49.896 29.4037C49.896 29.4033 49.896 29.4029 49.896 29.4025C49.896 29.402 49.896 29.4016 49.896 29.4012C49.896 29.4008 49.896 29.4003 49.896 29.3999C49.896 29.3995 49.896 29.399 49.896 29.3986C49.896 29.3982 49.896 29.3977 49.896 29.3973C49.896 29.3969 49.896 29.3965 49.896 29.396C49.896 29.3956 49.896 29.3952 49.896 29.3947C49.896 29.3943 49.896 29.3939 49.896 29.3934C49.896 29.393 49.896 29.3926 49.896 29.3921C49.896 29.3917 49.896 29.3913 49.896 29.3908C49.896 29.3904 49.896 29.39 49.896 29.3895C49.896 29.3891 49.896 29.3887 49.896 29.3882C49.896 29.3878 49.896 29.3874 49.896 29.3869C49.896 29.3865 49.896 29.3861 49.896 29.3856C49.896 29.3852 49.896 29.3847 49.896 29.3843C49.896 29.3839 49.896 29.3834 49.896 29.383C49.896 29.3826 49.896 29.3821 49.896 29.3817C49.896 29.3812 49.896 29.3808 49.896 29.3804C49.896 29.3799 49.896 29.3795 49.896 29.3791C49.896 29.3786 49.896 29.3782 49.896 29.3777C49.896 29.3773 49.896 29.3769 49.896 29.3764C49.896 29.376 49.896 29.3755 49.896 29.3751C49.896 29.3746 49.896 29.3742 49.896 29.3738C49.896 29.3733 49.896 29.3729 49.896 29.3724C49.896 29.372 49.896 29.3716 49.896 29.3711C49.896 29.3707 49.896 29.3702 49.896 29.3698C49.896 29.3693 49.896 29.3689 49.896 29.3684C49.896 29.368 49.896 29.3676 49.896 29.3671C49.896 29.3667 49.896 29.3662 49.896 29.3658C49.896 29.3653 49.896 29.3649 49.896 29.3644C49.896 29.364 49.896 29.3635 49.896 29.3631C49.896 29.3626 49.896 29.3622 49.896 29.3617C49.896 29.3613 49.896 29.3609 49.896 29.3604C49.896 29.36 49.896 29.3595 49.896 29.3591C49.896 29.3586 49.896 29.3582 49.896 29.3577C49.896 29.3573 49.896 29.3568 49.896 29.3564C49.896 29.3559 49.896 29.3555 49.896 29.355C49.896 29.3546 49.896 29.3541 49.896 29.3537C49.896 29.3532 49.896 29.3527 49.896 29.3523C49.896 29.3518 49.896 29.3514 49.896 29.3509C49.896 29.3505 49.896 29.35 49.896 29.3496C49.896 29.3491 49.896 29.3487 49.896 29.3482C49.896 29.3478 49.896 29.3473 49.896 29.3468C49.896 29.3464 49.896 29.3459 49.896 29.3455C49.896 29.345 49.896 29.3446 49.896 29.3441C49.896 29.3437 49.896 29.3432 49.896 29.3427C49.896 29.3423 49.896 29.3418 49.896 29.3414C49.896 29.3409 49.896 29.3405 49.896 29.34C49.896 29.3395 49.896 29.3391 49.896 29.3386C49.896 29.3382 49.896 29.3377 49.896 29.3372C49.896 29.3368 49.896 29.3363 49.896 29.3359C49.896 29.3354 49.896 29.3349 49.896 29.3345C49.896 29.334 49.896 29.3336 49.896 29.3331C49.896 29.3326 49.896 29.3322 49.896 29.3317C49.896 29.3313 49.896 29.3308 49.896 29.3303C49.896 29.3299 49.896 29.3294 49.896 29.3289C49.896 29.3285 49.896 29.328 49.896 29.3275C49.896 29.3271 49.896 29.3266 49.896 29.3262C49.896 29.3257 49.896 29.3252 49.896 29.3248C49.896 29.3243 49.896 29.3238 49.896 29.3234C49.896 29.3229 49.896 29.3224 49.896 29.322C49.896 29.3215 49.896 29.321 49.896 29.3206C49.896 29.3201 49.896 29.3196 49.896 29.3192C49.896 29.3187 49.896 29.3182 49.896 29.3177C49.896 29.3173 49.896 29.3168 49.896 29.3163C49.896 29.3159 49.896 29.3154 49.896 29.3149C49.896 29.3145 49.896 29.314 49.896 29.3135C49.896 29.3131 49.896 29.3126 49.896 29.3121C49.896 29.3116 49.896 29.3112 49.896 29.3107C49.896 29.3102 49.896 29.3097 49.896 29.3093C49.896 29.3088 49.896 29.3083 49.896 29.3079C49.896 29.3074 49.896 29.3069 49.896 29.3064C49.896 29.306 49.896 29.3055 49.896 29.305C49.896 29.3045 49.896 29.3041 49.896 29.3036C49.896 29.3031 49.896 29.3026 49.896 29.3022C49.896 29.3017 49.896 29.3012 49.896 29.3007C49.896 29.3003 49.896 29.2998 49.896 29.2993C49.896 29.2988 49.896 29.2983 49.896 29.2979C49.896 29.2974 49.896 29.2969 49.896 29.2964C49.896 29.296 49.896 29.2955 49.896 29.295C49.896 29.2945 49.896 29.294 49.896 29.2936C49.896 29.2931 49.896 29.2926 49.896 29.2921C49.896 29.2916 49.896 29.2912 49.896 29.2907C49.896 29.2902 49.896 29.2897 49.896 29.2892C49.896 29.2888 49.896 29.2883 49.896 29.2878C49.896 29.2873 49.896 29.2868 49.896 29.2863C49.896 29.2859 49.896 29.2854 49.896 29.2849C49.896 29.2844 49.896 29.2839 49.896 29.2834C49.896 29.283 49.896 29.2825 49.896 29.282C49.896 29.2815 49.896 29.281 49.896 29.2805C49.896 29.28 49.896 29.2796 49.896 29.2791C49.896 29.2786 49.896 29.2781 49.896 29.2776C49.896 29.2771 49.896 29.2766 49.896 29.2761C49.896 29.2757 49.896 29.2752 49.896 29.2747C49.896 29.2742 49.896 29.2737 49.896 29.2732C49.896 29.2727 49.896 29.2722 49.896 29.2717C49.896 29.2713 49.896 29.2708 49.896 29.2703C49.896 29.2698 49.896 29.2693 49.896 29.2688C49.896 29.2683 49.896 29.2678 49.896 29.2673C49.896 29.2668 49.896 29.2664 49.896 29.2659C49.896 29.2654 49.896 29.2649 49.896 29.2644C49.896 29.2639 49.896 29.2634 49.896 29.2629C49.896 29.2624 49.896 29.2619 49.896 29.2614C49.896 29.2609 49.896 29.2604 49.896 29.2599C49.896 29.2594 49.896 29.2589 49.896 29.2585C49.896 29.258 49.896 29.2575 49.896 29.257C49.896 29.2565 49.896 29.256 49.896 29.2555C49.896 29.255 49.896 29.2545 49.896 29.254C49.896 29.2535 49.896 29.253 49.896 29.2525C49.896 29.252 49.896 29.2515 49.896 29.251C49.896 29.2505 49.896 29.25 49.896 29.2495C49.896 29.249 49.896 29.2485 49.896 29.248C49.896 29.2475 49.896 29.247 49.896 29.2465C49.896 29.246 49.896 29.2455 49.896 29.245C49.896 29.2445 49.896 29.244 49.896 29.2435C49.896 29.243 49.896 29.2425 49.896 29.242C49.896 29.2415 49.896 29.241 49.896 29.2405C49.896 29.24 49.896 29.2395 49.896 29.239C49.896 29.2385 49.896 29.238 49.896 29.2375C49.896 29.2369 49.896 29.2364 49.896 29.2359C49.896 29.2354 49.896 29.2349 49.896 29.2344C49.896 29.2339 49.896 29.2334 49.896 29.2329C49.896 29.2324 49.896 29.2319 49.896 29.2314C49.896 29.2309 49.896 29.2304 49.896 29.2299C49.896 29.2293 49.896 29.2288 49.896 29.2283C49.896 29.2278 49.896 29.2273 49.896 29.2268C49.896 29.2263 49.896 29.2258 49.896 29.2253C49.896 29.2248 49.896 29.2243 49.896 29.2237C49.896 29.2232 49.896 29.2227 49.896 29.2222C49.896 29.2217 49.896 29.2212 49.896 29.2207C49.896 29.2202 49.896 29.2197 49.896 29.2191C49.896 29.2186 49.896 29.2181 49.896 29.2176C49.896 29.2171 49.896 29.2166 49.896 29.2161C49.896 29.2156 49.896 29.215 49.896 29.2145C49.896 29.214 49.896 29.2135 49.896 29.213C49.896 29.2125 49.896 29.212 49.896 29.2114C49.896 29.2109 49.896 29.2104 49.896 29.2099C49.896 29.2094 49.896 29.2089 49.896 29.2083C49.896 29.2078 49.896 29.2073 49.896 29.2068C49.896 29.2063 49.896 29.2058 49.896 29.2052C49.896 29.2047 49.896 29.2042 49.896 29.2037C49.896 29.2032 49.896 29.2026 49.896 29.2021C49.896 29.2016 49.896 29.2011 49.896 29.2006C49.896 29.2 49.896 29.1995 49.896 29.199C49.896 29.1985 49.896 29.198 49.896 29.1974C49.896 29.1969 49.896 29.1964 49.896 29.1959C49.896 29.1953 49.896 29.1948 49.896 29.1943C49.896 29.1938 49.896 29.1933 49.896 29.1927C49.896 29.1922 49.896 29.1917 49.896 29.1912C49.896 29.1906 49.896 29.1901 49.896 29.1896C49.896 29.1891 49.896 29.1885 49.896 29.188C49.896 29.1875 49.896 29.187 49.896 29.1864C49.896 29.1859 49.896 29.1854 49.896 29.1849C49.896 29.1843 49.896 29.1838 49.896 29.1833C49.896 29.1827 49.896 29.1822 49.896 29.1817C49.896 29.1812 49.896 29.1806 49.896 29.1801C49.896 29.1796 49.896 29.179 49.896 29.1785C49.896 29.178 49.896 29.1775 49.896 29.1769C49.896 29.1764 49.896 29.1759 49.896 29.1753C49.896 29.1748 49.896 29.1743 49.896 29.1737C49.896 29.1732 49.896 29.1727 49.896 29.1722C49.896 29.1716 49.896 29.1711 49.896 29.1706C49.896 29.17 49.896 29.1695 49.896 29.169C49.896 29.1684 49.896 29.1679 49.896 29.1674C49.896 29.1668 49.896 29.1663 49.896 29.1658C49.896 29.1652 49.896 29.1647 49.896 29.1642C49.896 29.1636 49.896 29.1631 49.896 29.1625C49.896 29.162 49.896 29.1615 49.896 29.1609C49.896 29.1604 49.896 29.1599 49.896 29.1593C49.896 29.1588 49.896 29.1583 49.896 29.1577C49.896 29.1572 49.896 29.1566 49.896 29.1561C49.896 29.1556 49.896 29.155 49.896 29.1545C49.896 29.1539 49.896 29.1534 49.896 29.1529C49.896 29.1523 49.896 29.1518 49.896 29.1512C49.896 29.1507 49.896 29.1502 49.896 29.1496C49.896 29.1491 49.896 29.1485 49.896 29.148C49.896 29.1475 49.896 29.1469 49.896 29.1464C49.896 29.1458 49.896 29.1453 49.896 29.1447C49.896 29.1442 49.896 29.1437 49.896 29.1431C49.896 29.1426 49.896 29.142 49.896 29.1415C49.896 29.1409 49.896 29.1404 49.896 29.1398C49.896 29.1393 49.896 29.1388 49.896 29.1382C49.896 29.1377 49.896 29.1371 49.896 29.1366C49.896 29.136 49.896 29.1355 49.896 29.1349C49.896 29.1344 49.896 29.1338 49.896 29.1333C49.896 29.1327 49.896 29.1322 49.896 29.1317C49.896 29.1311 49.896 29.1306 49.896 29.13C49.896 29.1295 49.896 29.1289 49.896 29.1284C49.896 29.1278 49.896 29.1273 49.896 29.1267C49.896 29.1262 49.896 29.1256 49.896 29.1251C49.896 29.1245 49.896 29.124 49.896 29.1234C49.896 29.1229 49.896 29.1223 49.896 29.1217C49.896 29.1212 49.896 29.1206 49.896 29.1201C49.896 29.1195 49.896 29.119 49.896 29.1184C49.896 29.1179 49.896 29.1173 49.896 29.1168C49.896 29.1162 49.896 29.1157 49.896 29.1151C49.896 29.1146 49.896 29.114 49.896 29.1134C49.896 29.1129 49.896 29.1123 49.896 29.1118C49.896 29.1112 49.896 29.1107 49.896 29.1101C49.896 29.1095 49.896 29.109 49.896 29.1084C49.896 29.1079 49.896 29.1073 49.896 29.1068C49.896 29.1062 49.896 29.1056 49.896 29.1051C49.896 29.1045 49.896 29.104 49.896 29.1034C49.896 29.1029 49.896 29.1023 49.896 29.1017C49.896 29.1012 49.896 29.1006 49.896 29.1001C49.896 29.0995 49.896 29.0989 49.896 29.0984C49.896 29.0978 49.896 29.0972 49.896 29.0967C49.896 29.0961 49.896 29.0956 49.896 29.095C49.896 29.0944 49.896 29.0939 49.896 29.0933C49.896 29.0927 49.896 29.0922 49.896 29.0916C49.896 29.0911 49.896 29.0905 49.896 29.0899C49.896 29.0894 49.896 29.0888 49.896 29.0882C49.896 29.0877 49.896 29.0871 49.896 29.0865C49.896 29.086 49.896 29.0854 49.896 29.0848C49.896 29.0843 49.896 29.0837 49.896 29.0831C49.896 29.0826 49.896 29.082 49.896 29.0814C49.896 29.0809 49.896 29.0803 49.896 29.0797C49.896 29.0792 49.896 29.0786 49.896 29.078C49.896 29.0775 49.896 29.0769 49.896 29.0763C49.896 29.0757 49.896 29.0752 49.896 29.0746C49.896 29.074 49.896 29.0735 49.896 29.0729C49.896 29.0723 49.896 29.0718 49.896 29.0712C49.896 29.0706 49.896 29.07 49.896 29.0695C49.896 29.0689 49.896 29.0683 49.896 29.0677C49.896 29.0672 49.896 29.0666 49.896 29.066C49.896 29.0655 49.896 29.0649 49.896 29.0643C49.896 29.0637 49.896 29.0632 49.896 29.0626C49.896 29.062 49.896 29.0614 49.896 29.0609C49.896 29.0603 49.896 29.0597 49.896 29.0591C49.896 29.0586 49.896 29.058 49.896 29.0574C49.896 29.0568 49.896 29.0562 49.896 29.0557C49.896 29.0551 49.896 29.0545 49.896 29.0539C49.896 29.0534 49.896 29.0528 49.896 29.0522C49.896 29.0516 49.896 29.051 49.896 29.0505C49.896 29.0499 49.896 29.0493 49.896 29.0487C49.896 29.0481 49.896 29.0476 49.896 29.047C49.896 29.0464 49.896 29.0458 49.896 29.0452C49.896 29.0447 49.896 29.0441 49.896 29.0435C49.896 29.0429 49.896 29.0423 49.896 29.0417C49.896 29.0412 49.896 29.0406 49.896 29.04C49.896 29.0394 49.896 29.0388 49.896 29.0382C49.896 29.0377 49.896 29.0371 49.896 29.0365C49.896 29.0359 49.896 29.0353 49.896 29.0347C49.896 29.0342 49.896 29.0336 49.896 29.033C49.896 29.0324 49.896 29.0318 49.896 29.0312C49.896 29.0306 49.896 29.0301 49.896 29.0295C49.896 29.0289 49.896 29.0283 49.896 29.0277C49.896 29.0271 49.896 29.0265 49.896 29.0259C49.896 29.0253 49.896 29.0248 49.896 29.0242C49.896 29.0236 49.896 29.023 49.896 29.0224C49.896 29.0218 49.896 29.0212 49.896 29.0206C49.896 29.02 49.896 29.0194 49.896 29.0189C49.896 29.0183 49.896 29.0177 49.896 29.0171C49.896 29.0165 49.896 29.0159 49.896 29.0153C49.896 29.0147 49.896 29.0141 49.896 29.0135C49.896 29.0129 49.896 29.0123 49.896 29.0117C49.896 29.0112 49.896 29.0106 49.896 29.01C49.896 29.0094 49.896 29.0088 49.896 29.0082C49.896 29.0076 49.896 29.007 49.896 29.0064C49.896 29.0058 49.896 29.0052 49.896 29.0046C49.896 29.004 49.896 29.0034 49.896 29.0028C49.896 29.0022 49.896 29.0016 49.896 29.001C49.896 29.0004 49.896 28.9998 49.896 28.9992C49.896 28.9986 49.896 28.998 49.896 28.9974C49.896 28.9968 49.896 28.9962 49.896 28.9956C49.896 28.995 49.896 28.9944 49.896 28.9938C49.896 28.9932 49.896 28.9926 49.896 28.992C49.896 28.9914 49.896 28.9908 49.896 28.9902C49.896 28.9896 49.896 28.989 49.896 28.9884C49.896 28.9878 49.896 28.9872 49.896 28.9866C49.896 28.986 49.896 28.9854 49.896 28.9848C49.896 28.9842 49.896 28.9836 49.896 28.983C49.896 28.9824 49.896 28.9818 49.896 28.9812C49.896 28.9806 49.896 28.98 49.896 28.9794C49.896 28.9788 49.896 28.9782 49.896 28.9776C49.896 28.9769 49.896 28.9763 49.896 28.9757C49.896 28.9751 49.896 28.9745 49.896 28.9739C49.896 28.9733 49.896 28.9727 49.896 28.9721C49.896 28.9715 49.896 28.9709 49.896 28.9703C49.896 28.9697 49.896 28.969 49.896 28.9684C49.896 28.9678 49.896 28.9672 49.896 28.9666C49.896 28.966 49.896 28.9654 49.896 28.9648C49.896 28.9642 49.896 28.9636 49.896 28.9629C49.896 28.9623 49.896 28.9617 49.896 28.9611C49.896 28.9605 49.896 28.9599 49.896 28.9593C49.896 28.9587 49.896 28.958 49.896 28.9574C49.896 28.9568 49.896 28.9562 49.896 28.9556C49.896 28.955 49.896 28.9544 49.896 28.9537C49.896 28.9531 49.896 28.9525 49.896 28.9519C49.896 28.9513 49.896 28.9507 49.896 28.9501C49.896 28.9494 49.896 28.9488 49.896 28.9482C49.896 28.9476 49.896 28.947 49.896 28.9464C49.896 28.9457 49.896 28.9451 49.896 28.9445C49.896 28.9439 49.896 28.9433 49.896 28.9427C49.896 28.942 49.896 28.9414 49.896 28.9408C49.896 28.9402 49.896 28.9396 49.896 28.9389C49.896 28.9383 49.896 28.9377 49.896 28.9371C49.896 28.9365 49.896 28.9358 49.896 28.9352C49.896 28.9346 49.896 28.934 49.896 28.9333C49.896 28.9327 49.896 28.9321 49.896 28.9315C49.896 28.9309 49.896 28.9302 49.896 28.9296C49.896 28.929 49.896 28.9284 49.896 28.9277C49.896 28.9271 49.896 28.9265 49.896 28.9259C49.896 28.9252 49.896 28.9246 49.896 28.924C49.896 28.9234 49.896 28.9227 49.896 28.9221C49.896 28.9215 49.896 28.9209 49.896 28.9202C49.896 28.9196 49.896 28.919 49.896 28.9184C49.896 28.9177 49.896 28.9171 49.896 28.9165C49.896 28.9159 49.896 28.9152 49.896 28.9146C49.896 28.914 49.896 28.9133 49.896 28.9127C49.896 28.9121 49.896 28.9115 49.896 28.9108C49.896 28.9102 49.896 28.9096 49.896 28.9089C49.896 28.9083 49.896 28.9077 49.896 28.907C49.896 28.9064 49.896 28.9058 49.896 28.9052C49.896 28.9045 49.896 28.9039 49.896 28.9033C49.896 28.9026 49.896 28.902 49.896 28.9014C49.896 28.9007 49.896 28.9001 49.896 28.8995C49.896 28.8988 49.896 28.8982 49.896 28.8976C49.896 28.8969 49.896 28.8963 49.896 28.8957C49.896 28.895 49.896 28.8944 49.896 28.8937C49.896 28.8931 49.896 28.8925 49.896 28.8918C49.896 28.8912 49.896 28.8906 49.896 28.8899C49.896 28.8893 49.896 28.8887 49.896 28.888C49.896 28.8874 49.896 28.8867 49.896 28.8861C49.896 28.8855 49.896 28.8848 49.896 28.8842C49.896 28.8836 49.896 28.8829 49.896 28.8823C49.896 28.8816 49.896 28.881 49.896 28.8804C49.896 28.8797 49.896 28.8791 49.896 28.8784C49.896 28.8778 49.896 28.8772 49.896 28.8765C49.896 28.8759 49.896 28.8752 49.896 28.8746C49.896 28.8739 49.896 28.8733 49.896 28.8727C49.896 28.872 49.896 28.8714 49.896 28.8707C49.896 28.8701 49.896 28.8694 49.896 28.8688C49.896 28.8682 49.896 28.8675 49.896 28.8669C49.896 28.8662 49.896 28.8656 49.896 28.8649C49.896 28.8643 49.896 28.8636 49.896 28.863C49.896 28.8624 49.896 28.8617 49.896 28.8611C49.896 28.8604 49.896 28.8598 49.896 28.8591C49.896 28.8585 49.896 28.8578 49.896 28.8572C49.896 28.8565 49.896 28.8559 49.896 28.8552C49.896 28.8546 49.896 28.8539 49.896 28.8533C49.896 28.8526 49.896 28.852 49.896 28.8513C49.896 28.8507 49.896 28.85 49.896 28.8494C49.896 28.8487 49.896 28.8481 49.896 28.8474C49.896 28.8468 49.896 28.8461 49.896 28.8455C49.896 28.8448 49.896 28.8442 49.896 28.8435C49.896 28.8429 49.896 28.8422 49.896 28.8416C49.896 28.8409 49.896 28.8403 49.896 28.8396C49.896 28.839 49.896 28.8383 49.896 28.8376C49.896 28.837 49.896 28.8363 49.896 28.8357C49.896 28.835 49.896 28.8344 49.896 28.8337C49.896 28.8331 49.896 28.8324 49.896 28.8317C49.896 28.8311 49.896 28.8304 49.896 28.8298C49.896 28.8291 49.896 28.8285 49.896 28.8278C49.896 28.8271 49.896 28.8265 49.896 28.8258C49.896 28.8252 49.896 28.8245 49.896 28.8239C49.896 28.8232 49.896 28.8225 49.896 28.8219C49.896 28.8212 49.896 28.8206 49.896 28.8199C49.896 28.8192 49.896 28.8186 49.896 28.8179C49.896 28.8173 49.896 28.8166 49.896 28.8159C49.896 28.8153 49.896 28.8146 49.896 28.814C49.896 28.8133 49.896 28.8126 49.896 28.812C49.896 28.8113 49.896 28.8106 49.896 28.81C49.896 28.8093 49.896 28.8086 49.896 28.808C49.896 28.8073 49.896 28.8067 49.896 28.806C49.896 28.8053 49.896 28.8047 49.896 28.804C49.896 28.8033 49.896 28.8027 49.896 28.802C49.896 28.8013 49.896 28.8007 49.896 28.8C49.896 28.7993 49.896 28.7987 49.896 28.798C49.896 28.7973 49.896 28.7967 49.896 28.796C49.896 28.7953 49.896 28.7947 49.896 28.794C49.896 28.7933 49.896 28.7927 49.896 28.792C49.896 28.7913 49.896 28.7906 49.896 28.79C49.896 28.7893 49.896 28.7886 49.896 28.788C49.896 28.7873 49.896 28.7866 49.896 28.786C49.896 28.7853 49.896 28.7846 49.896 28.7839C49.896 28.7833 49.896 28.7826 49.896 28.7819C49.896 28.7812 49.896 28.7806 49.896 28.7799C49.896 28.7792 49.896 28.7786 49.896 28.7779C49.896 28.7772 49.896 28.7765 49.896 28.7759C49.896 28.7752 49.896 28.7745 49.896 28.7738C49.896 28.7732 49.896 28.7725 49.896 28.7718C49.896 28.7711 49.896 28.7705 49.896 28.7698C49.896 28.7691 49.896 28.7684 49.896 28.7677C49.896 28.7671 49.896 28.7664 49.896 28.7657C49.896 28.765 49.896 28.7644 49.896 28.7637C49.896 28.763 49.896 28.7623 49.896 28.7616C49.896 28.761 49.896 28.7603 49.896 28.7596C49.896 28.7589 49.896 28.7582 49.896 28.7576C49.896 28.7569 49.896 28.7562 49.896 28.7555C49.896 28.7548 49.896 28.7542 49.896 28.7535C49.896 28.7528 49.896 28.7521 49.896 28.7514C49.896 28.7508 49.896 28.7501 49.896 28.7494C49.896 28.7487 49.896 28.748 49.896 28.7473C49.896 28.7467 49.896 28.746 49.896 28.7453C49.896 28.7446 49.896 28.7439 49.896 28.7432C49.896 28.7425 49.896 28.7419 49.896 28.7412C49.896 28.7405 49.896 28.7398 49.896 28.7391C49.896 28.7384 49.896 28.7377 49.896 28.7371C49.896 28.7364 49.896 28.7357 49.896 28.735C49.896 28.7343 49.896 28.7336 49.896 28.7329C49.896 28.7322 49.896 28.7316 49.896 28.7309C49.896 28.7302 49.896 28.7295 49.896 28.7288C49.896 28.7281 49.896 28.7274 49.896 28.7267C49.896 28.726 49.896 28.7254 49.896 28.7247C49.896 28.724 49.896 28.7233 49.896 28.7226C49.896 28.7219 49.896 28.7212 49.896 28.7205C49.896 28.7198 49.896 28.7191 49.896 28.7184C49.896 28.7177 49.896 28.7171 49.896 28.7164C49.896 28.7157 49.896 28.715 49.896 28.7143C49.896 28.7136 49.896 28.7129 49.896 28.7122C49.896 28.7115 49.896 28.7108 49.896 28.7101C49.896 28.7094 49.896 28.7087 49.896 28.708C49.896 28.7073 49.896 28.7066 49.896 28.7059C49.896 28.7052 49.896 28.7045 49.896 28.7038C49.896 28.7031 49.896 28.7024 49.896 28.7017C49.896 28.7011 49.896 28.7004 49.896 28.6997C49.896 28.699 49.896 28.6983 49.896 28.6976C49.896 28.6969 49.896 28.6962 49.896 28.6955C49.896 28.6948 49.896 28.6941 49.896 28.6934C49.896 28.6927 49.896 28.692 49.896 28.6913C49.896 28.6906 49.896 28.6899 49.896 28.6892C49.896 28.6884 49.896 28.6877 49.896 28.687C49.896 28.6863 49.896 28.6856 49.896 28.6849C49.896 28.6842 49.896 28.6835 49.896 28.6828C49.896 28.6821 49.896 28.6814 49.896 28.6807C49.896 28.68 49.896 28.6793 49.896 28.6786C49.896 28.6779 49.896 28.6772 49.896 28.6765C49.896 28.6758 49.896 28.6751 49.896 28.6744C49.896 28.6737 49.896 28.673 49.896 28.6722C49.896 28.6715 49.896 28.6708 49.896 28.6701C49.896 28.6694 49.896 28.6687 49.896 28.668C49.896 28.6673 49.896 28.6666 49.896 28.6659C49.896 28.6652 49.896 28.6645 49.896 28.6637C49.896 28.663 49.896 28.6623 49.896 28.6616C49.896 28.6609 49.896 28.6602 49.896 28.6595C49.896 28.6588 49.896 28.6581 49.896 28.6573C49.896 28.6566 49.896 28.6559 49.896 28.6552C49.896 28.6545 49.896 28.6538 49.896 28.6531C49.896 28.6524 49.896 28.6517 49.896 28.6509C49.896 28.6502 49.896 28.6495 49.896 28.6488C49.896 28.6481 49.896 28.6474 49.896 28.6467C49.896 28.6459 49.896 28.6452 49.896 28.6445C49.896 28.6438 49.896 28.6431 49.896 28.6424C49.896 28.6416 49.896 28.6409 49.896 28.6402C49.896 28.6395 49.896 28.6388 49.896 28.6381C49.896 28.6373 49.896 28.6366 49.896 28.6359C49.896 28.6352 49.896 28.6345 49.896 28.6337C49.896 28.633 49.896 28.6323 49.896 28.6316C49.896 28.6309 49.896 28.6302 49.896 28.6294C49.896 28.6287 49.896 28.628 49.896 28.6273C49.896 28.6266 49.896 28.6258 49.896 28.6251C49.896 28.6244 49.896 28.6237 49.896 28.6229C49.896 28.6222 49.896 28.6215 49.896 28.6208C49.896 28.6201 49.896 28.6193 49.896 28.6186C49.896 28.6179 49.896 28.6172 49.896 28.6164C49.896 28.6157 49.896 28.615 49.896 28.6143C49.896 28.6135 49.896 28.6128 49.896 28.6121C49.896 28.6114 49.896 28.6106 49.896 28.6099C49.896 28.6092 49.896 28.6085 49.896 28.6077C49.896 28.607 49.896 28.6063 49.896 28.6056C49.896 28.6048 49.896 28.6041 49.896 28.6034C49.896 28.6026 49.896 28.6019 49.896 28.6012C49.896 28.6005 49.896 28.5997 49.896 28.599C49.896 28.5983 49.896 28.5975 49.896 28.5968C49.896 28.5961 49.896 28.5954 49.896 28.5946C49.896 28.5939 49.896 28.5932 49.896 28.5924C49.896 28.5917 49.896 28.591 49.896 28.5902C49.896 28.5895 49.896 28.5888 49.896 28.588C49.896 28.5873 49.896 28.5866 49.896 28.5858C49.896 28.5851 49.896 28.5844 49.896 28.5836C49.896 28.5829 49.896 28.5822 49.896 28.5814C49.896 28.5807 49.896 28.58 49.896 28.5792C49.896 28.5785 49.896 28.5778 49.896 28.577C49.896 28.5763 49.896 28.5756 49.896 28.5748C49.896 28.5741 49.896 28.5733 49.896 28.5726C49.896 28.5719 49.896 28.5711 49.896 28.5704C49.896 28.5697 49.896 28.5689 49.896 28.5682C49.896 28.5674 49.896 28.5667 49.896 28.566C49.896 28.5652 49.896 28.5645 49.896 28.5637C49.896 28.563 49.896 28.5623 49.896 28.5615C49.896 28.5608 49.896 28.56 49.896 28.5593C49.896 28.5586 49.896 28.5578 49.896 28.5571C49.896 28.5563 49.896 28.5556 49.896 28.5549C49.896 28.5541 49.896 28.5534 49.896 28.5526C49.896 28.5519 49.896 28.5511 49.896 28.5504C49.896 28.5497 49.896 28.5489 49.896 28.5482C49.896 28.5474 49.896 28.5467 49.896 28.5459C49.896 28.5452 49.896 28.5444 49.896 28.5437C49.896 28.543 49.896 28.5422 49.896 28.5415C49.896 28.5407 49.896 28.54 49.896 28.5392C49.896 28.5385 49.896 28.5377 49.896 28.537C49.896 28.5362 49.896 28.5355 49.896 28.5347C49.896 28.534 49.896 28.5332 49.896 28.5325C49.896 28.5317 49.896 28.531 49.896 28.5302C49.896 28.5295 49.896 28.5287 49.896 28.528H47.896ZM48.7856 28.4301C47.5282 28.5698 46.433 28.9335 45.6577 29.6492L47.0143 31.1188C47.3483 30.8105 47.9598 30.5342 49.0064 30.4179L48.7856 28.4301ZM45.6577 29.6492C44.7962 30.4445 44.5209 31.6279 44.5687 32.917L46.5673 32.843C46.5297 31.8281 46.7665 31.3475 47.0143 31.1188L45.6577 29.6492ZM44.5702 32.9462L46.6182 63.7942L48.6138 63.6618L46.5658 32.8138L44.5702 32.9462ZM47.2998 64.6767C48.8081 65.1795 50.4788 65.4698 52.3033 65.5588L52.4007 63.5612C50.7265 63.4795 49.2399 63.2152 47.9322 62.7793L47.2998 64.6767Z" fill="#466675"/>
</svg>
