<svg width="39" height="94" viewBox="0 0 39 94" fill="none" xmlns="http://www.w3.org/2000/svg">
<path d="M6.76818 51.8056L6.72461 54.6529L4.88693 54.6247C4.39955 54.6173 3.92868 54.8351 3.57792 55.2303C3.22716 55.6255 3.02524 56.1657 3.01658 56.7321L2.99479 58.1557C2.99311 58.3988 3.02755 58.6402 3.09661 58.8693L2.37134 58.8582C1.88396 58.8507 1.4131 59.0686 1.06234 59.4638C0.711577 59.859 0.509655 60.3992 0.500989 60.9656L0.479207 62.3892C0.470542 62.9556 0.655843 63.5017 0.994348 63.9074C1.33285 64.3132 1.79683 64.5453 2.28421 64.5528L6.57214 64.6184L6.33253 80.2785L2.65717 80.2223C2.16979 80.2148 1.69892 80.4327 1.34816 80.8279C0.997405 81.2231 0.795483 81.7633 0.786817 82.3297L0.765035 83.7533C0.75637 84.3197 0.941671 84.8658 1.28018 85.2715C1.61868 85.6773 2.08266 85.9094 2.57004 85.9169L3.29531 85.928C3.21928 86.1548 3.17746 86.3951 3.17171 86.6381L3.14993 88.0617C3.14126 88.6281 3.32657 89.1742 3.66507 89.58C4.00357 89.9857 4.46755 90.2179 4.95494 90.2253L6.18006 90.2441L6.13649 93.0914C6.1336 93.2802 6.19537 93.4622 6.30821 93.5975C6.42104 93.7327 6.5757 93.8101 6.73816 93.8126L12.8638 93.9063C13.0262 93.9088 13.1832 93.8362 13.3001 93.7044C13.417 93.5727 13.4843 93.3926 13.4872 93.2038L13.5308 90.3565L15.3685 90.3847C15.8558 90.3921 16.3267 90.1743 16.6775 89.7791C17.0282 89.3839 17.2301 88.8437 17.2388 88.2773L17.2606 86.8537C17.2623 86.6106 17.2278 86.3692 17.1588 86.1401L17.2715 86.1418C17.7589 86.1493 18.2297 85.9315 18.5805 85.5362C18.9313 85.141 19.1332 84.6008 19.1418 84.0345L19.1636 82.6108C19.1723 82.0445 18.987 81.4983 18.6485 81.0926C18.31 80.6868 17.846 80.4547 17.3586 80.4472L13.6833 80.391L13.9229 64.7309L16.9857 64.7777C17.473 64.7852 17.9439 64.5674 18.2947 64.1721C18.6454 63.7769 18.8473 63.2367 18.856 62.6704L18.8778 61.2467C18.8865 60.6804 18.7012 60.1342 18.3627 59.7285C18.0241 59.3227 17.5602 59.0906 17.0728 59.0831L16.9601 59.0814C17.0361 58.8546 17.0779 58.6143 17.0837 58.3713L17.1055 56.9477C17.1141 56.3813 16.9288 55.8352 16.5903 55.4294C16.2518 55.0237 15.7878 54.7915 15.3005 54.7841L14.0753 54.7653L14.1189 51.918C14.1218 51.7292 14.06 51.5472 13.9472 51.412C13.8343 51.2767 13.6797 51.1993 13.5172 51.1968L7.39163 51.1031C7.22917 51.1006 7.07221 51.1732 6.95529 51.305C6.83837 51.4367 6.77106 51.6168 6.76818 51.8056ZM12.273 92.4733L7.3725 92.3983L7.40518 90.2628L12.3057 90.3378L12.273 92.4733ZM16.0355 86.8349L16.0137 88.2586C16.0108 88.4473 15.9435 88.6274 15.8266 88.7591C15.7097 88.8909 15.5527 88.9635 15.3902 88.961L4.97672 88.8017C4.81426 88.7992 4.6596 88.7218 4.54676 88.5866C4.43393 88.4513 4.37216 88.2693 4.37505 88.0805L4.39683 86.6568C4.39972 86.468 4.46703 86.288 4.58395 86.1562C4.70087 86.0245 4.85782 85.9519 5.02028 85.9544L15.4338 86.1137C15.5963 86.1162 15.7509 86.1936 15.8638 86.3288C15.9766 86.4641 16.0384 86.6461 16.0355 86.8349ZM17.3368 81.8709C17.4993 81.8734 17.654 81.9507 17.7668 82.086C17.8796 82.2213 17.9414 82.4033 17.9385 82.5921L17.9167 84.0157C17.9138 84.2045 17.8465 84.3846 17.7296 84.5163C17.6127 84.6481 17.4557 84.7207 17.2933 84.7182L2.59182 84.4932C2.42936 84.4908 2.2747 84.4134 2.16187 84.2781C2.04903 84.1429 1.98727 83.9608 1.99016 83.772L2.01194 82.3484C2.01483 82.1596 2.08213 81.9795 2.19905 81.8478C2.31597 81.7161 2.47293 81.6435 2.63539 81.6459L17.3368 81.8709ZM12.4581 80.3723L7.55765 80.2973L7.79726 64.6371L12.6977 64.7121L12.4581 80.3723ZM17.051 60.5068C17.2135 60.5093 17.3681 60.5866 17.481 60.7219C17.5938 60.8572 17.6556 61.0392 17.6527 61.228L17.6309 62.6516C17.628 62.8404 17.5607 63.0205 17.4438 63.1522C17.3269 63.284 17.1699 63.3566 17.0074 63.3541L2.306 63.1291C2.14354 63.1267 1.98888 63.0493 1.87604 62.914C1.76321 62.7788 1.70144 62.5967 1.70433 62.4079L1.72611 60.9843C1.729 60.7955 1.79631 60.6154 1.91323 60.4837C2.03015 60.352 2.1871 60.2794 2.34956 60.2818L17.051 60.5068ZM15.2787 56.2077C15.4411 56.2102 15.5958 56.2876 15.7086 56.4228C15.8215 56.5581 15.8832 56.7401 15.8803 56.9289L15.8586 58.3526C15.8557 58.5414 15.7884 58.7214 15.6714 58.8532C15.5545 58.9849 15.3976 59.0575 15.2351 59.055L4.82158 58.8957C4.65912 58.8932 4.50446 58.8158 4.39163 58.6806C4.27879 58.5453 4.21703 58.3633 4.21991 58.1745L4.2417 56.7508C4.24459 56.5621 4.31189 56.382 4.42881 56.2503C4.54573 56.1185 4.70269 56.0459 4.86515 56.0484L15.2787 56.2077ZM12.8829 52.6111L12.8502 54.7466L7.94973 54.6716L7.9824 52.5361L12.8829 52.6111Z" fill="black"/>
<path d="M17.0008 72.1505L19.2136 70.0239C20.002 69.2667 21.3469 69.2956 22.1014 70.0861L35.8754 84.5157C35.8755 84.5158 35.8756 84.5159 35.8757 84.516L35.9944 84.6403C36.4431 85.1101 36.756 85.6939 36.899 86.3281L38.0303 91.3232C38.0699 91.4987 38.0151 91.6822 37.8854 91.8068C37.7864 91.902 37.6548 91.952 37.5212 91.9491C37.4801 91.9482 37.4386 91.9423 37.3977 91.9312L32.4731 90.5818C31.8476 90.4112 31.2797 90.0724 30.8315 89.6023L30.7133 89.4785C30.7128 89.478 30.7123 89.4774 30.7118 89.4769L18.7043 76.8982C18.7043 76.8981 18.7043 76.8981 18.7042 76.8981C18.7042 76.8981 18.7042 76.8981 18.7042 76.898L16.9383 75.0481C16.1593 74.2323 16.1873 72.9324 17.0008 72.1505ZM31.1391 86.4379L32.7946 86.4736L32.8304 84.8126C32.8365 84.5297 33.0701 84.3052 33.352 84.3113L34.2853 84.3314L23.483 73.0149L19.795 76.5593L30.5974 87.8754L30.6176 86.9392C30.6237 86.6563 30.8572 86.4319 31.1391 86.4379ZM32.7415 89.5932L34.7572 90.1454C34.9171 89.8001 35.136 89.4833 35.4132 89.2166C35.6905 88.9505 36.0154 88.7446 36.3661 88.5993L35.903 86.5546C35.8035 86.1139 35.5875 85.7088 35.2806 85.3779L33.8403 85.3468L33.8045 87.0079C33.7984 87.2907 33.5649 87.5152 33.283 87.5091L31.6275 87.4734L31.5964 88.9184C31.9125 89.2403 32.3066 89.4745 32.7415 89.5932ZM17.6758 74.3393L19.0887 75.8194L22.7768 72.275L21.364 70.7949C21.1752 70.5974 20.9212 70.4854 20.6485 70.4795C20.3758 70.4736 20.117 70.5746 19.9198 70.7638L17.707 72.8904C17.3006 73.2812 17.2863 73.9313 17.6758 74.3393Z" fill="black"/>
<path d="M29.8074 70.469C29.3124 70.4318 28.821 70.1865 28.4618 69.7477C27.774 68.908 27.8256 67.6727 28.577 66.9942L34.7032 61.4594C35.4546 60.7803 36.626 60.9122 37.3127 61.751C38.0006 62.5904 37.9484 63.8256 37.197 64.5044L31.0713 70.0393C30.713 70.3633 30.2589 70.5028 29.8074 70.469ZM30.7081 69.5958L30.7136 69.5962L30.7081 69.5958ZM35.8799 62.1982C35.7149 62.1858 35.5547 62.2335 35.4296 62.3463L29.3034 67.8811C29.0214 68.1361 29.0255 68.6285 29.3125 68.9792C29.6 69.3296 30.0624 69.4071 30.3449 69.1524L36.4706 63.6175C36.7526 63.3625 36.749 62.8699 36.4621 62.5195C36.302 62.3244 36.0874 62.2137 35.8799 62.1982Z" fill="black"/>
<path d="M22.9526 62.0998C22.4576 62.0626 21.9661 61.8174 21.6069 61.3785C20.9191 60.5388 20.9708 59.3036 21.7221 58.625L27.8483 53.0905C28.5997 52.4114 29.7695 52.5426 30.4579 53.3815C31.1457 54.2215 31.094 55.4568 30.3427 56.1353L24.2165 61.6701C23.8581 61.9942 23.404 62.1337 22.9526 62.0998ZM29.0256 53.8293C28.8601 53.8169 28.6998 53.8647 28.5747 53.9774L22.4486 59.5119C22.1665 59.767 22.1707 60.2594 22.4576 60.61C22.7446 60.9604 23.2081 61.038 23.4901 60.7832L29.6163 55.2484C29.8983 54.9934 29.8941 54.501 29.6072 54.1504C29.4472 53.9552 29.2325 53.8449 29.0256 53.8293Z" fill="black"/>
<path d="M29.468 67.5065C29.3199 67.4954 29.1829 67.4231 29.0866 67.3055L23.9997 61.0944C23.799 60.8494 23.8268 60.479 24.0618 60.2667L29.0447 55.7648C29.1575 55.6629 29.3038 55.6118 29.4519 55.6229C29.6 55.634 29.737 55.7064 29.8333 55.824L34.9203 62.035C35.1209 62.28 35.0931 62.6504 34.8581 62.8627L29.8752 67.3646C29.7624 67.4665 29.6162 67.5177 29.468 67.5065ZM25.2135 60.7693L29.5741 66.0935L33.7064 62.3601L29.3458 57.036L25.2135 60.7693Z" fill="black"/>
<path d="M13.3879 76.6309C13.2452 76.6202 13.1068 76.5523 13.0065 76.4298C12.8058 76.1848 12.8336 75.8144 13.0686 75.6021L26.6052 63.3723C26.8402 63.16 27.1931 63.1865 27.3938 63.4315C27.5945 63.6765 27.5667 64.0469 27.3317 64.2592L13.795 76.489C13.6775 76.5951 13.5306 76.6416 13.3879 76.6309Z" fill="black"/>
<path d="M36.992 44.26L37.6877 44.1827L37.6218 43.5899L37.0261 43.5608L36.992 44.26ZM36.992 45.888V46.588H37.6255L37.6885 45.9577L36.992 45.888ZM26.3 45.888L25.6035 45.9577L25.6665 46.588H26.3V45.888ZM26.3 44.26L26.2037 43.5667L25.6644 43.6416L25.6043 44.1827L26.3 44.26ZM28.676 43.6L29.016 44.2119L29.0286 44.2049L29.041 44.1973L28.676 43.6ZM29.424 42.016L30.1235 41.988L30.1232 41.9818L29.424 42.016ZM28.456 22.216L29.1552 22.1818L27.7999 21.9719L28.456 22.216ZM27.048 26L27.6983 26.259L27.7013 26.2516L27.7041 26.2441L27.048 26ZM19.128 45.888V46.588H19.6027L19.7783 46.147L19.128 45.888ZM17.852 45.888L17.1931 46.1242L17.3593 46.588H17.852V45.888ZM9.272 21.952L9.93095 21.7158L8.57374 21.9026L9.272 21.952ZM7.732 43.732L7.03374 43.6826L6.99721 44.1994L7.48072 44.3853L7.732 43.732ZM10.988 44.26L11.6862 44.3099L11.7376 43.5906L11.0171 43.5606L10.988 44.26ZM10.768 45.888V46.588H11.3568L11.4576 46.0079L10.768 45.888ZM1.836 45.888L1.13823 45.8322L1.07776 46.588H1.836V45.888ZM2.056 44.26L1.95701 43.567L1.49106 43.6336L1.3769 44.0902L2.056 44.26ZM5.224 41.84L4.52554 41.7936L4.52503 41.8013L4.52469 41.8089L5.224 41.84ZM6.632 20.632L7.33046 20.6784L7.36415 20.1709L6.89197 19.9821L6.632 20.632ZM4.3 20.148L3.60952 20.2631L3.70353 20.8271L4.27502 20.8476L4.3 20.148ZM4.476 18.52V17.82H4.04338L3.8499 18.2069L4.476 18.52ZM12.088 18.52L12.7478 18.2861L12.5825 17.82H12.088V18.52ZM19.216 38.628L18.5562 38.8619L19.1815 40.6257L19.8673 38.8845L19.216 38.628ZM27.136 18.52V17.82H26.6594L26.4847 18.2635L27.136 18.52ZM34.484 18.52L35.1631 18.3502L35.0305 17.82H34.484V18.52ZM34.616 20.104L34.6933 20.7997L35.316 20.7305V20.104H34.616ZM32.856 20.764L33.3308 21.2784L33.3308 21.2784L32.856 20.764ZM32.328 22.48L31.6285 22.5059L31.6289 22.5161L31.6295 22.5264L32.328 22.48ZM33.736 43.688L33.0375 43.7344L33.0687 44.2034L33.5146 44.3521L33.736 43.688ZM36.2963 44.3373C36.3228 44.5758 36.336 44.814 36.336 45.052H37.736C37.736 44.762 37.7199 44.4722 37.6877 44.1827L36.2963 44.3373ZM36.336 45.052C36.336 45.2902 36.3228 45.5455 36.2955 45.8183L37.6885 45.9577C37.7199 45.6438 37.736 45.3418 37.736 45.052H36.336ZM36.992 45.188H26.3V46.588H36.992V45.188ZM26.9965 45.8183C26.9692 45.5455 26.956 45.2902 26.956 45.052H25.556C25.556 45.3418 25.5721 45.6438 25.6035 45.9577L26.9965 45.8183ZM26.956 45.052C26.956 44.814 26.9692 44.5758 26.9957 44.3373L25.6043 44.1827C25.5721 44.4722 25.556 44.762 25.556 45.052H26.956ZM26.3963 44.9533C27.4826 44.8025 28.3756 44.5677 29.016 44.2119L28.3361 42.9881C27.9204 43.219 27.2294 43.4242 26.2037 43.5667L26.3963 44.9533ZM29.041 44.1973C29.8298 43.7153 30.1607 42.9187 30.1234 41.988L28.7246 42.044C28.746 42.58 28.5782 42.8394 28.311 43.0027L29.041 44.1973ZM30.1232 41.9818L29.1552 22.1818L27.7568 22.2502L28.7248 42.0502L30.1232 41.9818ZM27.7999 21.9719L26.3919 25.7559L27.7041 26.2441L29.1121 22.4601L27.7999 21.9719ZM26.3977 25.741L18.4777 45.629L19.7783 46.147L27.6983 26.259L26.3977 25.741ZM19.128 45.188H17.852V46.588H19.128V45.188ZM18.5109 45.6518L9.93095 21.7158L8.61306 22.1882L17.1931 46.1242L18.5109 45.6518ZM8.57374 21.9026L7.03374 43.6826L8.43026 43.7814L9.97026 22.0014L8.57374 21.9026ZM7.48072 44.3853C8.34783 44.7188 9.52151 44.8995 10.9589 44.9594L11.0171 43.5606C9.63849 43.5032 8.6415 43.3318 7.98329 43.0787L7.48072 44.3853ZM10.2898 44.2101C10.2629 44.587 10.1939 45.1036 10.0784 45.7681L11.4576 46.0079C11.5768 45.3231 11.6545 44.7543 11.6862 44.3099L10.2898 44.2101ZM10.768 45.188H1.836V46.588H10.768V45.188ZM2.53377 45.9438C2.59182 45.2183 2.66175 44.7232 2.7351 44.4298L1.3769 44.0902C1.27425 44.5008 1.19752 45.0911 1.13823 45.8322L2.53377 45.9438ZM2.155 44.953C3.23977 44.798 4.15082 44.497 4.81293 43.9913C5.50454 43.463 5.88471 42.7395 5.92331 41.8711L4.52469 41.8089C4.50462 42.2605 4.32746 42.6004 3.96307 42.8787C3.56918 43.1796 2.92556 43.4287 1.95701 43.567L2.155 44.953ZM5.92246 41.8864L7.33046 20.6784L5.93354 20.5856L4.52554 41.7936L5.92246 41.8864ZM6.89197 19.9821C6.08074 19.6576 5.22361 19.4805 4.32498 19.4484L4.27502 20.8476C5.01906 20.8741 5.71659 21.0198 6.37203 21.2819L6.89197 19.9821ZM4.99048 20.0329C4.97021 19.9113 4.956 19.7199 4.956 19.444H3.556C3.556 19.7547 3.57113 20.0327 3.60952 20.2631L4.99048 20.0329ZM4.956 19.444C4.956 19.2318 5.00321 19.0308 5.1021 18.833L3.8499 18.2069C3.65546 18.5958 3.556 19.0108 3.556 19.444H4.956ZM4.476 19.22H12.088V17.82H4.476V19.22ZM11.4282 18.7539L18.5562 38.8619L19.8758 38.3941L12.7478 18.2861L11.4282 18.7539ZM19.8673 38.8845L27.7873 18.7765L26.4847 18.2635L18.5647 38.3715L19.8673 38.8845ZM27.136 19.22H34.484V17.82H27.136V19.22ZM33.8049 18.6898C33.8822 18.9988 33.916 19.2635 33.916 19.488H35.316C35.316 19.1258 35.2619 18.7452 35.1631 18.3502L33.8049 18.6898ZM33.916 19.488C33.916 19.4885 33.916 19.489 33.916 19.4895C33.916 19.4901 33.916 19.4906 33.916 19.4911C33.916 19.4916 33.916 19.4921 33.916 19.4926C33.916 19.4931 33.916 19.4937 33.916 19.4942C33.916 19.4947 33.916 19.4952 33.916 19.4957C33.916 19.4962 33.916 19.4967 33.916 19.4973C33.916 19.4978 33.916 19.4983 33.916 19.4988C33.916 19.4993 33.916 19.4998 33.916 19.5003C33.916 19.5008 33.916 19.5014 33.916 19.5019C33.916 19.5024 33.916 19.5029 33.916 19.5034C33.916 19.5039 33.916 19.5044 33.916 19.5049C33.916 19.5054 33.916 19.506 33.916 19.5065C33.916 19.507 33.916 19.5075 33.916 19.508C33.916 19.5085 33.916 19.509 33.916 19.5095C33.916 19.51 33.916 19.5105 33.916 19.5111C33.916 19.5116 33.916 19.5121 33.916 19.5126C33.916 19.5131 33.916 19.5136 33.916 19.5141C33.916 19.5146 33.916 19.5151 33.916 19.5156C33.916 19.5161 33.916 19.5166 33.916 19.5171C33.916 19.5177 33.916 19.5182 33.916 19.5187C33.916 19.5192 33.916 19.5197 33.916 19.5202C33.916 19.5207 33.916 19.5212 33.916 19.5217C33.916 19.5222 33.916 19.5227 33.916 19.5232C33.916 19.5237 33.916 19.5242 33.916 19.5247C33.916 19.5252 33.916 19.5257 33.916 19.5263C33.916 19.5268 33.916 19.5273 33.916 19.5278C33.916 19.5283 33.916 19.5288 33.916 19.5293C33.916 19.5298 33.916 19.5303 33.916 19.5308C33.916 19.5313 33.916 19.5318 33.916 19.5323C33.916 19.5328 33.916 19.5333 33.916 19.5338C33.916 19.5343 33.916 19.5348 33.916 19.5353C33.916 19.5358 33.916 19.5363 33.916 19.5368C33.916 19.5373 33.916 19.5378 33.916 19.5383C33.916 19.5388 33.916 19.5393 33.916 19.5398C33.916 19.5403 33.916 19.5408 33.916 19.5413C33.916 19.5418 33.916 19.5423 33.916 19.5428C33.916 19.5433 33.916 19.5438 33.916 19.5443C33.916 19.5448 33.916 19.5453 33.916 19.5458C33.916 19.5463 33.916 19.5468 33.916 19.5473C33.916 19.5478 33.916 19.5483 33.916 19.5488C33.916 19.5493 33.916 19.5498 33.916 19.5503C33.916 19.5508 33.916 19.5513 33.916 19.5518C33.916 19.5523 33.916 19.5528 33.916 19.5533C33.916 19.5538 33.916 19.5543 33.916 19.5548C33.916 19.5553 33.916 19.5558 33.916 19.5562C33.916 19.5567 33.916 19.5572 33.916 19.5577C33.916 19.5582 33.916 19.5587 33.916 19.5592C33.916 19.5597 33.916 19.5602 33.916 19.5607C33.916 19.5612 33.916 19.5617 33.916 19.5622C33.916 19.5627 33.916 19.5632 33.916 19.5637C33.916 19.5642 33.916 19.5647 33.916 19.5651C33.916 19.5656 33.916 19.5661 33.916 19.5666C33.916 19.5671 33.916 19.5676 33.916 19.5681C33.916 19.5686 33.916 19.5691 33.916 19.5696C33.916 19.5701 33.916 19.5706 33.916 19.571C33.916 19.5715 33.916 19.572 33.916 19.5725C33.916 19.573 33.916 19.5735 33.916 19.574C33.916 19.5745 33.916 19.575 33.916 19.5755C33.916 19.5759 33.916 19.5764 33.916 19.5769C33.916 19.5774 33.916 19.5779 33.916 19.5784C33.916 19.5789 33.916 19.5794 33.916 19.5799C33.916 19.5803 33.916 19.5808 33.916 19.5813C33.916 19.5818 33.916 19.5823 33.916 19.5828C33.916 19.5833 33.916 19.5838 33.916 19.5842C33.916 19.5847 33.916 19.5852 33.916 19.5857C33.916 19.5862 33.916 19.5867 33.916 19.5872C33.916 19.5877 33.916 19.5881 33.916 19.5886C33.916 19.5891 33.916 19.5896 33.916 19.5901C33.916 19.5906 33.916 19.5911 33.916 19.5915C33.916 19.592 33.916 19.5925 33.916 19.593C33.916 19.5935 33.916 19.594 33.916 19.5944C33.916 19.5949 33.916 19.5954 33.916 19.5959C33.916 19.5964 33.916 19.5969 33.916 19.5973C33.916 19.5978 33.916 19.5983 33.916 19.5988C33.916 19.5993 33.916 19.5998 33.916 19.6002C33.916 19.6007 33.916 19.6012 33.916 19.6017C33.916 19.6022 33.916 19.6026 33.916 19.6031C33.916 19.6036 33.916 19.6041 33.916 19.6046C33.916 19.6051 33.916 19.6055 33.916 19.606C33.916 19.6065 33.916 19.607 33.916 19.6075C33.916 19.6079 33.916 19.6084 33.916 19.6089C33.916 19.6094 33.916 19.6098 33.916 19.6103C33.916 19.6108 33.916 19.6113 33.916 19.6118C33.916 19.6122 33.916 19.6127 33.916 19.6132C33.916 19.6137 33.916 19.6142 33.916 19.6146C33.916 19.6151 33.916 19.6156 33.916 19.6161C33.916 19.6165 33.916 19.617 33.916 19.6175C33.916 19.618 33.916 19.6184 33.916 19.6189C33.916 19.6194 33.916 19.6199 33.916 19.6204C33.916 19.6208 33.916 19.6213 33.916 19.6218C33.916 19.6223 33.916 19.6227 33.916 19.6232C33.916 19.6237 33.916 19.6242 33.916 19.6246C33.916 19.6251 33.916 19.6256 33.916 19.6261C33.916 19.6265 33.916 19.627 33.916 19.6275C33.916 19.6279 33.916 19.6284 33.916 19.6289C33.916 19.6294 33.916 19.6298 33.916 19.6303C33.916 19.6308 33.916 19.6313 33.916 19.6317C33.916 19.6322 33.916 19.6327 33.916 19.6331C33.916 19.6336 33.916 19.6341 33.916 19.6346C33.916 19.635 33.916 19.6355 33.916 19.636C33.916 19.6364 33.916 19.6369 33.916 19.6374C33.916 19.6379 33.916 19.6383 33.916 19.6388C33.916 19.6393 33.916 19.6397 33.916 19.6402C33.916 19.6407 33.916 19.6411 33.916 19.6416C33.916 19.6421 33.916 19.6426 33.916 19.643C33.916 19.6435 33.916 19.644 33.916 19.6444C33.916 19.6449 33.916 19.6454 33.916 19.6458C33.916 19.6463 33.916 19.6468 33.916 19.6472C33.916 19.6477 33.916 19.6482 33.916 19.6486C33.916 19.6491 33.916 19.6496 33.916 19.65C33.916 19.6505 33.916 19.651 33.916 19.6514C33.916 19.6519 33.916 19.6524 33.916 19.6528C33.916 19.6533 33.916 19.6538 33.916 19.6542C33.916 19.6547 33.916 19.6552 33.916 19.6556C33.916 19.6561 33.916 19.6565 33.916 19.657C33.916 19.6575 33.916 19.6579 33.916 19.6584C33.916 19.6589 33.916 19.6593 33.916 19.6598C33.916 19.6603 33.916 19.6607 33.916 19.6612C33.916 19.6616 33.916 19.6621 33.916 19.6626C33.916 19.663 33.916 19.6635 33.916 19.664C33.916 19.6644 33.916 19.6649 33.916 19.6653C33.916 19.6658 33.916 19.6663 33.916 19.6667C33.916 19.6672 33.916 19.6676 33.916 19.6681C33.916 19.6686 33.916 19.669 33.916 19.6695C33.916 19.6699 33.916 19.6704 33.916 19.6709C33.916 19.6713 33.916 19.6718 33.916 19.6722C33.916 19.6727 33.916 19.6732 33.916 19.6736C33.916 19.6741 33.916 19.6745 33.916 19.675C33.916 19.6755 33.916 19.6759 33.916 19.6764C33.916 19.6768 33.916 19.6773 33.916 19.6777C33.916 19.6782 33.916 19.6787 33.916 19.6791C33.916 19.6796 33.916 19.68 33.916 19.6805C33.916 19.6809 33.916 19.6814 33.916 19.6819C33.916 19.6823 33.916 19.6828 33.916 19.6832C33.916 19.6837 33.916 19.6841 33.916 19.6846C33.916 19.685 33.916 19.6855 33.916 19.686C33.916 19.6864 33.916 19.6869 33.916 19.6873C33.916 19.6878 33.916 19.6882 33.916 19.6887C33.916 19.6891 33.916 19.6896 33.916 19.69C33.916 19.6905 33.916 19.6909 33.916 19.6914C33.916 19.6919 33.916 19.6923 33.916 19.6928C33.916 19.6932 33.916 19.6937 33.916 19.6941C33.916 19.6946 33.916 19.695 33.916 19.6955C33.916 19.6959 33.916 19.6964 33.916 19.6968C33.916 19.6973 33.916 19.6977 33.916 19.6982C33.916 19.6986 33.916 19.6991 33.916 19.6995C33.916 19.7 33.916 19.7004 33.916 19.7009C33.916 19.7013 33.916 19.7018 33.916 19.7022C33.916 19.7027 33.916 19.7031 33.916 19.7036C33.916 19.704 33.916 19.7045 33.916 19.7049C33.916 19.7054 33.916 19.7058 33.916 19.7063C33.916 19.7067 33.916 19.7072 33.916 19.7076C33.916 19.7081 33.916 19.7085 33.916 19.709C33.916 19.7094 33.916 19.7098 33.916 19.7103C33.916 19.7107 33.916 19.7112 33.916 19.7116C33.916 19.7121 33.916 19.7125 33.916 19.713C33.916 19.7134 33.916 19.7139 33.916 19.7143C33.916 19.7148 33.916 19.7152 33.916 19.7156C33.916 19.7161 33.916 19.7165 33.916 19.717C33.916 19.7174 33.916 19.7179 33.916 19.7183C33.916 19.7188 33.916 19.7192 33.916 19.7196C33.916 19.7201 33.916 19.7205 33.916 19.721C33.916 19.7214 33.916 19.7219 33.916 19.7223C33.916 19.7227 33.916 19.7232 33.916 19.7236C33.916 19.7241 33.916 19.7245 33.916 19.725C33.916 19.7254 33.916 19.7258 33.916 19.7263C33.916 19.7267 33.916 19.7272 33.916 19.7276C33.916 19.728 33.916 19.7285 33.916 19.7289C33.916 19.7294 33.916 19.7298 33.916 19.7302C33.916 19.7307 33.916 19.7311 33.916 19.7316C33.916 19.732 33.916 19.7324 33.916 19.7329C33.916 19.7333 33.916 19.7338 33.916 19.7342C33.916 19.7346 33.916 19.7351 33.916 19.7355C33.916 19.736 33.916 19.7364 33.916 19.7368C33.916 19.7373 33.916 19.7377 33.916 19.7381C33.916 19.7386 33.916 19.739 33.916 19.7395C33.916 19.7399 33.916 19.7403 33.916 19.7408C33.916 19.7412 33.916 19.7416 33.916 19.7421C33.916 19.7425 33.916 19.7429 33.916 19.7434C33.916 19.7438 33.916 19.7442 33.916 19.7447C33.916 19.7451 33.916 19.7456 33.916 19.746C33.916 19.7464 33.916 19.7469 33.916 19.7473C33.916 19.7477 33.916 19.7482 33.916 19.7486C33.916 19.749 33.916 19.7495 33.916 19.7499C33.916 19.7503 33.916 19.7508 33.916 19.7512C33.916 19.7516 33.916 19.7521 33.916 19.7525C33.916 19.7529 33.916 19.7534 33.916 19.7538C33.916 19.7542 33.916 19.7547 33.916 19.7551C33.916 19.7555 33.916 19.7559 33.916 19.7564C33.916 19.7568 33.916 19.7572 33.916 19.7577C33.916 19.7581 33.916 19.7585 33.916 19.759C33.916 19.7594 33.916 19.7598 33.916 19.7602C33.916 19.7607 33.916 19.7611 33.916 19.7615C33.916 19.762 33.916 19.7624 33.916 19.7628C33.916 19.7633 33.916 19.7637 33.916 19.7641C33.916 19.7645 33.916 19.765 33.916 19.7654C33.916 19.7658 33.916 19.7662 33.916 19.7667C33.916 19.7671 33.916 19.7675 33.916 19.768C33.916 19.7684 33.916 19.7688 33.916 19.7692C33.916 19.7697 33.916 19.7701 33.916 19.7705C33.916 19.7709 33.916 19.7714 33.916 19.7718C33.916 19.7722 33.916 19.7726 33.916 19.7731C33.916 19.7735 33.916 19.7739 33.916 19.7743C33.916 19.7748 33.916 19.7752 33.916 19.7756C33.916 19.776 33.916 19.7765 33.916 19.7769C33.916 19.7773 33.916 19.7777 33.916 19.7782C33.916 19.7786 33.916 19.779 33.916 19.7794C33.916 19.7799 33.916 19.7803 33.916 19.7807C33.916 19.7811 33.916 19.7815 33.916 19.782C33.916 19.7824 33.916 19.7828 33.916 19.7832C33.916 19.7837 33.916 19.7841 33.916 19.7845C33.916 19.7849 33.916 19.7853 33.916 19.7858C33.916 19.7862 33.916 19.7866 33.916 19.787C33.916 19.7874 33.916 19.7879 33.916 19.7883C33.916 19.7887 33.916 19.7891 33.916 19.7895C33.916 19.79 33.916 19.7904 33.916 19.7908C33.916 19.7912 33.916 19.7916 33.916 19.7921C33.916 19.7925 33.916 19.7929 33.916 19.7933C33.916 19.7937 33.916 19.7941 33.916 19.7946C33.916 19.795 33.916 19.7954 33.916 19.7958C33.916 19.7962 33.916 19.7967 33.916 19.7971C33.916 19.7975 33.916 19.7979 33.916 19.7983C33.916 19.7987 33.916 19.7991 33.916 19.7996C33.916 19.8 33.916 19.8004 33.916 19.8008C33.916 19.8012 33.916 19.8016 33.916 19.8021C33.916 19.8025 33.916 19.8029 33.916 19.8033C33.916 19.8037 33.916 19.8041 33.916 19.8045C33.916 19.805 33.916 19.8054 33.916 19.8058C33.916 19.8062 33.916 19.8066 33.916 19.807C33.916 19.8074 33.916 19.8079 33.916 19.8083C33.916 19.8087 33.916 19.8091 33.916 19.8095C33.916 19.8099 33.916 19.8103 33.916 19.8107C33.916 19.8111 33.916 19.8116 33.916 19.812C33.916 19.8124 33.916 19.8128 33.916 19.8132C33.916 19.8136 33.916 19.814 33.916 19.8144C33.916 19.8148 33.916 19.8153 33.916 19.8157C33.916 19.8161 33.916 19.8165 33.916 19.8169C33.916 19.8173 33.916 19.8177 33.916 19.8181C33.916 19.8185 33.916 19.8189 33.916 19.8194C33.916 19.8198 33.916 19.8202 33.916 19.8206C33.916 19.821 33.916 19.8214 33.916 19.8218C33.916 19.8222 33.916 19.8226 33.916 19.823C33.916 19.8234 33.916 19.8238 33.916 19.8242C33.916 19.8247 33.916 19.8251 33.916 19.8255C33.916 19.8259 33.916 19.8263 33.916 19.8267C33.916 19.8271 33.916 19.8275 33.916 19.8279C33.916 19.8283 33.916 19.8287 33.916 19.8291C33.916 19.8295 33.916 19.8299 33.916 19.8303C33.916 19.8307 33.916 19.8311 33.916 19.8315C33.916 19.8319 33.916 19.8324 33.916 19.8328C33.916 19.8332 33.916 19.8336 33.916 19.834C33.916 19.8344 33.916 19.8348 33.916 19.8352C33.916 19.8356 33.916 19.836 33.916 19.8364C33.916 19.8368 33.916 19.8372 33.916 19.8376C33.916 19.838 33.916 19.8384 33.916 19.8388C33.916 19.8392 33.916 19.8396 33.916 19.84C33.916 19.8404 33.916 19.8408 33.916 19.8412C33.916 19.8416 33.916 19.842 33.916 19.8424C33.916 19.8428 33.916 19.8432 33.916 19.8436C33.916 19.844 33.916 19.8444 33.916 19.8448C33.916 19.8452 33.916 19.8456 33.916 19.846C33.916 19.8464 33.916 19.8468 33.916 19.8472C33.916 19.8476 33.916 19.848 33.916 19.8484C33.916 19.8488 33.916 19.8492 33.916 19.8496C33.916 19.85 33.916 19.8504 33.916 19.8508C33.916 19.8512 33.916 19.8516 33.916 19.852C33.916 19.8524 33.916 19.8528 33.916 19.8532C33.916 19.8535 33.916 19.8539 33.916 19.8543C33.916 19.8547 33.916 19.8551 33.916 19.8555C33.916 19.8559 33.916 19.8563 33.916 19.8567C33.916 19.8571 33.916 19.8575 33.916 19.8579C33.916 19.8583 33.916 19.8587 33.916 19.8591C33.916 19.8595 33.916 19.8599 33.916 19.8603C33.916 19.8607 33.916 19.861 33.916 19.8614C33.916 19.8618 33.916 19.8622 33.916 19.8626C33.916 19.863 33.916 19.8634 33.916 19.8638C33.916 19.8642 33.916 19.8646 33.916 19.865C33.916 19.8654 33.916 19.8658 33.916 19.8661C33.916 19.8665 33.916 19.8669 33.916 19.8673C33.916 19.8677 33.916 19.8681 33.916 19.8685C33.916 19.8689 33.916 19.8693 33.916 19.8697C33.916 19.87 33.916 19.8704 33.916 19.8708C33.916 19.8712 33.916 19.8716 33.916 19.872C33.916 19.8724 33.916 19.8728 33.916 19.8732C33.916 19.8735 33.916 19.8739 33.916 19.8743C33.916 19.8747 33.916 19.8751 33.916 19.8755C33.916 19.8759 33.916 19.8763 33.916 19.8767C33.916 19.877 33.916 19.8774 33.916 19.8778C33.916 19.8782 33.916 19.8786 33.916 19.879C33.916 19.8794 33.916 19.8797 33.916 19.8801C33.916 19.8805 33.916 19.8809 33.916 19.8813C33.916 19.8817 33.916 19.8821 33.916 19.8824C33.916 19.8828 33.916 19.8832 33.916 19.8836C33.916 19.884 33.916 19.8844 33.916 19.8847C33.916 19.8851 33.916 19.8855 33.916 19.8859C33.916 19.8863 33.916 19.8867 33.916 19.887C33.916 19.8874 33.916 19.8878 33.916 19.8882C33.916 19.8886 33.916 19.889 33.916 19.8893C33.916 19.8897 33.916 19.8901 33.916 19.8905C33.916 19.8909 33.916 19.8913 33.916 19.8916C33.916 19.892 33.916 19.8924 33.916 19.8928C33.916 19.8932 33.916 19.8935 33.916 19.8939C33.916 19.8943 33.916 19.8947 33.916 19.8951C33.916 19.8954 33.916 19.8958 33.916 19.8962C33.916 19.8966 33.916 19.897 33.916 19.8973C33.916 19.8977 33.916 19.8981 33.916 19.8985C33.916 19.8989 33.916 19.8992 33.916 19.8996C33.916 19.9 33.916 19.9004 33.916 19.9007C33.916 19.9011 33.916 19.9015 33.916 19.9019C33.916 19.9023 33.916 19.9026 33.916 19.903C33.916 19.9034 33.916 19.9038 33.916 19.9041C33.916 19.9045 33.916 19.9049 33.916 19.9053C33.916 19.9056 33.916 19.906 33.916 19.9064C33.916 19.9068 33.916 19.9071 33.916 19.9075C33.916 19.9079 33.916 19.9083 33.916 19.9086C33.916 19.909 33.916 19.9094 33.916 19.9098C33.916 19.9101 33.916 19.9105 33.916 19.9109C33.916 19.9113 33.916 19.9116 33.916 19.912C33.916 19.9124 33.916 19.9128 33.916 19.9131C33.916 19.9135 33.916 19.9139 33.916 19.9142C33.916 19.9146 33.916 19.915 33.916 19.9154C33.916 19.9157 33.916 19.9161 33.916 19.9165C33.916 19.9169 33.916 19.9172 33.916 19.9176C33.916 19.918 33.916 19.9183 33.916 19.9187C33.916 19.9191 33.916 19.9194 33.916 19.9198C33.916 19.9202 33.916 19.9206 33.916 19.9209C33.916 19.9213 33.916 19.9217 33.916 19.922C33.916 19.9224 33.916 19.9228 33.916 19.9231C33.916 19.9235 33.916 19.9239 33.916 19.9242C33.916 19.9246 33.916 19.925 33.916 19.9254C33.916 19.9257 33.916 19.9261 33.916 19.9265C33.916 19.9268 33.916 19.9272 33.916 19.9276C33.916 19.9279 33.916 19.9283 33.916 19.9287C33.916 19.929 33.916 19.9294 33.916 19.9298C33.916 19.9301 33.916 19.9305 33.916 19.9309C33.916 19.9312 33.916 19.9316 33.916 19.932C33.916 19.9323 33.916 19.9327 33.916 19.933C33.916 19.9334 33.916 19.9338 33.916 19.9341C33.916 19.9345 33.916 19.9349 33.916 19.9352C33.916 19.9356 33.916 19.936 33.916 19.9363C33.916 19.9367 33.916 19.9371 33.916 19.9374C33.916 19.9378 33.916 19.9381 33.916 19.9385C33.916 19.9389 33.916 19.9392 33.916 19.9396C33.916 19.94 33.916 19.9403 33.916 19.9407C33.916 19.941 33.916 19.9414 33.916 19.9418C33.916 19.9421 33.916 19.9425 33.916 19.9428C33.916 19.9432 33.916 19.9436 33.916 19.9439C33.916 19.9443 33.916 19.9446 33.916 19.945C33.916 19.9454 33.916 19.9457 33.916 19.9461C33.916 19.9464 33.916 19.9468 33.916 19.9472C33.916 19.9475 33.916 19.9479 33.916 19.9482C33.916 19.9486 33.916 19.949 33.916 19.9493C33.916 19.9497 33.916 19.95 33.916 19.9504C33.916 19.9507 33.916 19.9511 33.916 19.9515C33.916 19.9518 33.916 19.9522 33.916 19.9525C33.916 19.9529 33.916 19.9532 33.916 19.9536C33.916 19.954 33.916 19.9543 33.916 19.9547C33.916 19.955 33.916 19.9554 33.916 19.9557C33.916 19.9561 33.916 19.9564 33.916 19.9568C33.916 19.9572 33.916 19.9575 33.916 19.9579C33.916 19.9582 33.916 19.9586 33.916 19.9589C33.916 19.9593 33.916 19.9596 33.916 19.96C33.916 19.9603 33.916 19.9607 33.916 19.961C33.916 19.9614 33.916 19.9618 33.916 19.9621C33.916 19.9625 33.916 19.9628 33.916 19.9632C33.916 19.9635 33.916 19.9639 33.916 19.9642C33.916 19.9646 33.916 19.9649 33.916 19.9653C33.916 19.9656 33.916 19.966 33.916 19.9663C33.916 19.9667 33.916 19.967 33.916 19.9674C33.916 19.9677 33.916 19.9681 33.916 19.9684C33.916 19.9688 33.916 19.9691 33.916 19.9695C33.916 19.9698 33.916 19.9702 33.916 19.9705C33.916 19.9709 33.916 19.9712 33.916 19.9716C33.916 19.9719 33.916 19.9723 33.916 19.9726C33.916 19.973 33.916 19.9733 33.916 19.9737C33.916 19.974 33.916 19.9744 33.916 19.9747C33.916 19.9751 33.916 19.9754 33.916 19.9757C33.916 19.9761 33.916 19.9764 33.916 19.9768C33.916 19.9771 33.916 19.9775 33.916 19.9778C33.916 19.9782 33.916 19.9785 33.916 19.9789C33.916 19.9792 33.916 19.9796 33.916 19.9799C33.916 19.9802 33.916 19.9806 33.916 19.9809C33.916 19.9813 33.916 19.9816 33.916 19.982C33.916 19.9823 33.916 19.9827 33.916 19.983C33.916 19.9833 33.916 19.9837 33.916 19.984C33.916 19.9844 33.916 19.9847 33.916 19.9851C33.916 19.9854 33.916 19.9857 33.916 19.9861C33.916 19.9864 33.916 19.9868 33.916 19.9871C33.916 19.9875 33.916 19.9878 33.916 19.9881C33.916 19.9885 33.916 19.9888 33.916 19.9892C33.916 19.9895 33.916 19.9898 33.916 19.9902C33.916 19.9905 33.916 19.9909 33.916 19.9912C33.916 19.9915 33.916 19.9919 33.916 19.9922C33.916 19.9926 33.916 19.9929 33.916 19.9932C33.916 19.9936 33.916 19.9939 33.916 19.9943C33.916 19.9946 33.916 19.9949 33.916 19.9953C33.916 19.9956 33.916 19.996 33.916 19.9963C33.916 19.9966 33.916 19.997 33.916 19.9973C33.916 19.9976 33.916 19.998 33.916 19.9983C33.916 19.9987 33.916 19.999 33.916 19.9993C33.916 19.9997 33.916 20 33.916 20.0003C33.916 20.0007 33.916 20.001 33.916 20.0013C33.916 20.0017 33.916 20.002 33.916 20.0024C33.916 20.0027 33.916 20.003 33.916 20.0034C33.916 20.0037 33.916 20.004 33.916 20.0044C33.916 20.0047 33.916 20.005 33.916 20.0054C33.916 20.0057 33.916 20.006 33.916 20.0064C33.916 20.0067 33.916 20.007 33.916 20.0074C33.916 20.0077 33.916 20.008 33.916 20.0084C33.916 20.0087 33.916 20.009 33.916 20.0094C33.916 20.0097 33.916 20.01 33.916 20.0104C33.916 20.0107 33.916 20.011 33.916 20.0113C33.916 20.0117 33.916 20.012 33.916 20.0123C33.916 20.0127 33.916 20.013 33.916 20.0133C33.916 20.0137 33.916 20.014 33.916 20.0143C33.916 20.0147 33.916 20.015 33.916 20.0153C33.916 20.0156 33.916 20.016 33.916 20.0163C33.916 20.0166 33.916 20.017 33.916 20.0173C33.916 20.0176 33.916 20.0179 33.916 20.0183C33.916 20.0186 33.916 20.0189 33.916 20.0193C33.916 20.0196 33.916 20.0199 33.916 20.0202C33.916 20.0206 33.916 20.0209 33.916 20.0212C33.916 20.0215 33.916 20.0219 33.916 20.0222C33.916 20.0225 33.916 20.0228 33.916 20.0232C33.916 20.0235 33.916 20.0238 33.916 20.0242C33.916 20.0245 33.916 20.0248 33.916 20.0251C33.916 20.0255 33.916 20.0258 33.916 20.0261C33.916 20.0264 33.916 20.0268 33.916 20.0271C33.916 20.0274 33.916 20.0277 33.916 20.028C33.916 20.0284 33.916 20.0287 33.916 20.029C33.916 20.0293 33.916 20.0297 33.916 20.03C33.916 20.0303 33.916 20.0306 33.916 20.031C33.916 20.0313 33.916 20.0316 33.916 20.0319C33.916 20.0322 33.916 20.0326 33.916 20.0329C33.916 20.0332 33.916 20.0335 33.916 20.0338C33.916 20.0342 33.916 20.0345 33.916 20.0348C33.916 20.0351 33.916 20.0354 33.916 20.0358C33.916 20.0361 33.916 20.0364 33.916 20.0367C33.916 20.037 33.916 20.0374 33.916 20.0377C33.916 20.038 33.916 20.0383 33.916 20.0386C33.916 20.039 33.916 20.0393 33.916 20.0396C33.916 20.0399 33.916 20.0402 33.916 20.0406C33.916 20.0409 33.916 20.0412 33.916 20.0415C33.916 20.0418 33.916 20.0421 33.916 20.0425C33.916 20.0428 33.916 20.0431 33.916 20.0434C33.916 20.0437 33.916 20.044 33.916 20.0444C33.916 20.0447 33.916 20.045 33.916 20.0453C33.916 20.0456 33.916 20.0459 33.916 20.0462C33.916 20.0466 33.916 20.0469 33.916 20.0472C33.916 20.0475 33.916 20.0478 33.916 20.0481C33.916 20.0485 33.916 20.0488 33.916 20.0491C33.916 20.0494 33.916 20.0497 33.916 20.05C33.916 20.0503 33.916 20.0506 33.916 20.051C33.916 20.0513 33.916 20.0516 33.916 20.0519C33.916 20.0522 33.916 20.0525 33.916 20.0528C33.916 20.0531 33.916 20.0535 33.916 20.0538C33.916 20.0541 33.916 20.0544 33.916 20.0547C33.916 20.055 33.916 20.0553 33.916 20.0556C33.916 20.0559 33.916 20.0563 33.916 20.0566C33.916 20.0569 33.916 20.0572 33.916 20.0575C33.916 20.0578 33.916 20.0581 33.916 20.0584C33.916 20.0587 33.916 20.059 33.916 20.0594C33.916 20.0597 33.916 20.06 33.916 20.0603C33.916 20.0606 33.916 20.0609 33.916 20.0612C33.916 20.0615 33.916 20.0618 33.916 20.0621C33.916 20.0624 33.916 20.0627 33.916 20.063C33.916 20.0634 33.916 20.0637 33.916 20.064C33.916 20.0643 33.916 20.0646 33.916 20.0649C33.916 20.0652 33.916 20.0655 33.916 20.0658C33.916 20.0661 33.916 20.0664 33.916 20.0667C33.916 20.067 33.916 20.0673 33.916 20.0676C33.916 20.0679 33.916 20.0682 33.916 20.0686C33.916 20.0689 33.916 20.0692 33.916 20.0695C33.916 20.0698 33.916 20.0701 33.916 20.0704C33.916 20.0707 33.916 20.071 33.916 20.0713C33.916 20.0716 33.916 20.0719 33.916 20.0722C33.916 20.0725 33.916 20.0728 33.916 20.0731C33.916 20.0734 33.916 20.0737 33.916 20.074C33.916 20.0743 33.916 20.0746 33.916 20.0749C33.916 20.0752 33.916 20.0755 33.916 20.0758C33.916 20.0761 33.916 20.0764 33.916 20.0767C33.916 20.077 33.916 20.0773 33.916 20.0776C33.916 20.0779 33.916 20.0782 33.916 20.0785C33.916 20.0788 33.916 20.0791 33.916 20.0794C33.916 20.0797 33.916 20.08 33.916 20.0803C33.916 20.0806 33.916 20.0809 33.916 20.0812C33.916 20.0815 33.916 20.0818 33.916 20.0821C33.916 20.0824 33.916 20.0827 33.916 20.083C33.916 20.0833 33.916 20.0836 33.916 20.0839C33.916 20.0842 33.916 20.0845 33.916 20.0848C33.916 20.0851 33.916 20.0854 33.916 20.0857C33.916 20.086 33.916 20.0862 33.916 20.0865C33.916 20.0868 33.916 20.0871 33.916 20.0874C33.916 20.0877 33.916 20.088 33.916 20.0883C33.916 20.0886 33.916 20.0889 33.916 20.0892C33.916 20.0895 33.916 20.0898 33.916 20.0901C33.916 20.0904 33.916 20.0907 33.916 20.091C33.916 20.0913 33.916 20.0915 33.916 20.0918C33.916 20.0921 33.916 20.0924 33.916 20.0927C33.916 20.093 33.916 20.0933 33.916 20.0936C33.916 20.0939 33.916 20.0942 33.916 20.0945C33.916 20.0948 33.916 20.095 33.916 20.0953C33.916 20.0956 33.916 20.0959 33.916 20.0962C33.916 20.0965 33.916 20.0968 33.916 20.0971C33.916 20.0974 33.916 20.0977 33.916 20.098C33.916 20.0982 33.916 20.0985 33.916 20.0988C33.916 20.0991 33.916 20.0994 33.916 20.0997C33.916 20.1 33.916 20.1003 33.916 20.1006C33.916 20.1008 33.916 20.1011 33.916 20.1014C33.916 20.1017 33.916 20.102 33.916 20.1023C33.916 20.1026 33.916 20.1029 33.916 20.1031C33.916 20.1034 33.916 20.1037 33.916 20.104H35.316C35.316 20.1037 35.316 20.1034 35.316 20.1031C35.316 20.1029 35.316 20.1026 35.316 20.1023C35.316 20.102 35.316 20.1017 35.316 20.1014C35.316 20.1011 35.316 20.1008 35.316 20.1006C35.316 20.1003 35.316 20.1 35.316 20.0997C35.316 20.0994 35.316 20.0991 35.316 20.0988C35.316 20.0985 35.316 20.0982 35.316 20.098C35.316 20.0977 35.316 20.0974 35.316 20.0971C35.316 20.0968 35.316 20.0965 35.316 20.0962C35.316 20.0959 35.316 20.0956 35.316 20.0953C35.316 20.095 35.316 20.0948 35.316 20.0945C35.316 20.0942 35.316 20.0939 35.316 20.0936C35.316 20.0933 35.316 20.093 35.316 20.0927C35.316 20.0924 35.316 20.0921 35.316 20.0918C35.316 20.0915 35.316 20.0913 35.316 20.091C35.316 20.0907 35.316 20.0904 35.316 20.0901C35.316 20.0898 35.316 20.0895 35.316 20.0892C35.316 20.0889 35.316 20.0886 35.316 20.0883C35.316 20.088 35.316 20.0877 35.316 20.0874C35.316 20.0871 35.316 20.0868 35.316 20.0865C35.316 20.0862 35.316 20.086 35.316 20.0857C35.316 20.0854 35.316 20.0851 35.316 20.0848C35.316 20.0845 35.316 20.0842 35.316 20.0839C35.316 20.0836 35.316 20.0833 35.316 20.083C35.316 20.0827 35.316 20.0824 35.316 20.0821C35.316 20.0818 35.316 20.0815 35.316 20.0812C35.316 20.0809 35.316 20.0806 35.316 20.0803C35.316 20.08 35.316 20.0797 35.316 20.0794C35.316 20.0791 35.316 20.0788 35.316 20.0785C35.316 20.0782 35.316 20.0779 35.316 20.0776C35.316 20.0773 35.316 20.077 35.316 20.0767C35.316 20.0764 35.316 20.0761 35.316 20.0758C35.316 20.0755 35.316 20.0752 35.316 20.0749C35.316 20.0746 35.316 20.0743 35.316 20.074C35.316 20.0737 35.316 20.0734 35.316 20.0731C35.316 20.0728 35.316 20.0725 35.316 20.0722C35.316 20.0719 35.316 20.0716 35.316 20.0713C35.316 20.071 35.316 20.0707 35.316 20.0704C35.316 20.0701 35.316 20.0698 35.316 20.0695C35.316 20.0692 35.316 20.0689 35.316 20.0686C35.316 20.0682 35.316 20.0679 35.316 20.0676C35.316 20.0673 35.316 20.067 35.316 20.0667C35.316 20.0664 35.316 20.0661 35.316 20.0658C35.316 20.0655 35.316 20.0652 35.316 20.0649C35.316 20.0646 35.316 20.0643 35.316 20.064C35.316 20.0637 35.316 20.0634 35.316 20.063C35.316 20.0627 35.316 20.0624 35.316 20.0621C35.316 20.0618 35.316 20.0615 35.316 20.0612C35.316 20.0609 35.316 20.0606 35.316 20.0603C35.316 20.06 35.316 20.0597 35.316 20.0594C35.316 20.059 35.316 20.0587 35.316 20.0584C35.316 20.0581 35.316 20.0578 35.316 20.0575C35.316 20.0572 35.316 20.0569 35.316 20.0566C35.316 20.0563 35.316 20.0559 35.316 20.0556C35.316 20.0553 35.316 20.055 35.316 20.0547C35.316 20.0544 35.316 20.0541 35.316 20.0538C35.316 20.0535 35.316 20.0531 35.316 20.0528C35.316 20.0525 35.316 20.0522 35.316 20.0519C35.316 20.0516 35.316 20.0513 35.316 20.051C35.316 20.0506 35.316 20.0503 35.316 20.05C35.316 20.0497 35.316 20.0494 35.316 20.0491C35.316 20.0488 35.316 20.0485 35.316 20.0481C35.316 20.0478 35.316 20.0475 35.316 20.0472C35.316 20.0469 35.316 20.0466 35.316 20.0462C35.316 20.0459 35.316 20.0456 35.316 20.0453C35.316 20.045 35.316 20.0447 35.316 20.0444C35.316 20.044 35.316 20.0437 35.316 20.0434C35.316 20.0431 35.316 20.0428 35.316 20.0425C35.316 20.0421 35.316 20.0418 35.316 20.0415C35.316 20.0412 35.316 20.0409 35.316 20.0406C35.316 20.0402 35.316 20.0399 35.316 20.0396C35.316 20.0393 35.316 20.039 35.316 20.0386C35.316 20.0383 35.316 20.038 35.316 20.0377C35.316 20.0374 35.316 20.037 35.316 20.0367C35.316 20.0364 35.316 20.0361 35.316 20.0358C35.316 20.0354 35.316 20.0351 35.316 20.0348C35.316 20.0345 35.316 20.0342 35.316 20.0338C35.316 20.0335 35.316 20.0332 35.316 20.0329C35.316 20.0326 35.316 20.0322 35.316 20.0319C35.316 20.0316 35.316 20.0313 35.316 20.031C35.316 20.0306 35.316 20.0303 35.316 20.03C35.316 20.0297 35.316 20.0293 35.316 20.029C35.316 20.0287 35.316 20.0284 35.316 20.028C35.316 20.0277 35.316 20.0274 35.316 20.0271C35.316 20.0268 35.316 20.0264 35.316 20.0261C35.316 20.0258 35.316 20.0255 35.316 20.0251C35.316 20.0248 35.316 20.0245 35.316 20.0242C35.316 20.0238 35.316 20.0235 35.316 20.0232C35.316 20.0228 35.316 20.0225 35.316 20.0222C35.316 20.0219 35.316 20.0215 35.316 20.0212C35.316 20.0209 35.316 20.0206 35.316 20.0202C35.316 20.0199 35.316 20.0196 35.316 20.0193C35.316 20.0189 35.316 20.0186 35.316 20.0183C35.316 20.0179 35.316 20.0176 35.316 20.0173C35.316 20.017 35.316 20.0166 35.316 20.0163C35.316 20.016 35.316 20.0156 35.316 20.0153C35.316 20.015 35.316 20.0147 35.316 20.0143C35.316 20.014 35.316 20.0137 35.316 20.0133C35.316 20.013 35.316 20.0127 35.316 20.0123C35.316 20.012 35.316 20.0117 35.316 20.0113C35.316 20.011 35.316 20.0107 35.316 20.0104C35.316 20.01 35.316 20.0097 35.316 20.0094C35.316 20.009 35.316 20.0087 35.316 20.0084C35.316 20.008 35.316 20.0077 35.316 20.0074C35.316 20.007 35.316 20.0067 35.316 20.0064C35.316 20.006 35.316 20.0057 35.316 20.0054C35.316 20.005 35.316 20.0047 35.316 20.0044C35.316 20.004 35.316 20.0037 35.316 20.0034C35.316 20.003 35.316 20.0027 35.316 20.0024C35.316 20.002 35.316 20.0017 35.316 20.0013C35.316 20.001 35.316 20.0007 35.316 20.0003C35.316 20 35.316 19.9997 35.316 19.9993C35.316 19.999 35.316 19.9987 35.316 19.9983C35.316 19.998 35.316 19.9976 35.316 19.9973C35.316 19.997 35.316 19.9966 35.316 19.9963C35.316 19.996 35.316 19.9956 35.316 19.9953C35.316 19.9949 35.316 19.9946 35.316 19.9943C35.316 19.9939 35.316 19.9936 35.316 19.9932C35.316 19.9929 35.316 19.9926 35.316 19.9922C35.316 19.9919 35.316 19.9915 35.316 19.9912C35.316 19.9909 35.316 19.9905 35.316 19.9902C35.316 19.9898 35.316 19.9895 35.316 19.9892C35.316 19.9888 35.316 19.9885 35.316 19.9881C35.316 19.9878 35.316 19.9875 35.316 19.9871C35.316 19.9868 35.316 19.9864 35.316 19.9861C35.316 19.9857 35.316 19.9854 35.316 19.9851C35.316 19.9847 35.316 19.9844 35.316 19.984C35.316 19.9837 35.316 19.9833 35.316 19.983C35.316 19.9827 35.316 19.9823 35.316 19.982C35.316 19.9816 35.316 19.9813 35.316 19.9809C35.316 19.9806 35.316 19.9802 35.316 19.9799C35.316 19.9796 35.316 19.9792 35.316 19.9789C35.316 19.9785 35.316 19.9782 35.316 19.9778C35.316 19.9775 35.316 19.9771 35.316 19.9768C35.316 19.9764 35.316 19.9761 35.316 19.9757C35.316 19.9754 35.316 19.9751 35.316 19.9747C35.316 19.9744 35.316 19.974 35.316 19.9737C35.316 19.9733 35.316 19.973 35.316 19.9726C35.316 19.9723 35.316 19.9719 35.316 19.9716C35.316 19.9712 35.316 19.9709 35.316 19.9705C35.316 19.9702 35.316 19.9698 35.316 19.9695C35.316 19.9691 35.316 19.9688 35.316 19.9684C35.316 19.9681 35.316 19.9677 35.316 19.9674C35.316 19.967 35.316 19.9667 35.316 19.9663C35.316 19.966 35.316 19.9656 35.316 19.9653C35.316 19.9649 35.316 19.9646 35.316 19.9642C35.316 19.9639 35.316 19.9635 35.316 19.9632C35.316 19.9628 35.316 19.9625 35.316 19.9621C35.316 19.9618 35.316 19.9614 35.316 19.961C35.316 19.9607 35.316 19.9603 35.316 19.96C35.316 19.9596 35.316 19.9593 35.316 19.9589C35.316 19.9586 35.316 19.9582 35.316 19.9579C35.316 19.9575 35.316 19.9572 35.316 19.9568C35.316 19.9564 35.316 19.9561 35.316 19.9557C35.316 19.9554 35.316 19.955 35.316 19.9547C35.316 19.9543 35.316 19.954 35.316 19.9536C35.316 19.9532 35.316 19.9529 35.316 19.9525C35.316 19.9522 35.316 19.9518 35.316 19.9515C35.316 19.9511 35.316 19.9507 35.316 19.9504C35.316 19.95 35.316 19.9497 35.316 19.9493C35.316 19.949 35.316 19.9486 35.316 19.9482C35.316 19.9479 35.316 19.9475 35.316 19.9472C35.316 19.9468 35.316 19.9464 35.316 19.9461C35.316 19.9457 35.316 19.9454 35.316 19.945C35.316 19.9446 35.316 19.9443 35.316 19.9439C35.316 19.9436 35.316 19.9432 35.316 19.9428C35.316 19.9425 35.316 19.9421 35.316 19.9418C35.316 19.9414 35.316 19.941 35.316 19.9407C35.316 19.9403 35.316 19.94 35.316 19.9396C35.316 19.9392 35.316 19.9389 35.316 19.9385C35.316 19.9381 35.316 19.9378 35.316 19.9374C35.316 19.9371 35.316 19.9367 35.316 19.9363C35.316 19.936 35.316 19.9356 35.316 19.9352C35.316 19.9349 35.316 19.9345 35.316 19.9341C35.316 19.9338 35.316 19.9334 35.316 19.933C35.316 19.9327 35.316 19.9323 35.316 19.932C35.316 19.9316 35.316 19.9312 35.316 19.9309C35.316 19.9305 35.316 19.9301 35.316 19.9298C35.316 19.9294 35.316 19.929 35.316 19.9287C35.316 19.9283 35.316 19.9279 35.316 19.9276C35.316 19.9272 35.316 19.9268 35.316 19.9265C35.316 19.9261 35.316 19.9257 35.316 19.9254C35.316 19.925 35.316 19.9246 35.316 19.9242C35.316 19.9239 35.316 19.9235 35.316 19.9231C35.316 19.9228 35.316 19.9224 35.316 19.922C35.316 19.9217 35.316 19.9213 35.316 19.9209C35.316 19.9206 35.316 19.9202 35.316 19.9198C35.316 19.9194 35.316 19.9191 35.316 19.9187C35.316 19.9183 35.316 19.918 35.316 19.9176C35.316 19.9172 35.316 19.9169 35.316 19.9165C35.316 19.9161 35.316 19.9157 35.316 19.9154C35.316 19.915 35.316 19.9146 35.316 19.9142C35.316 19.9139 35.316 19.9135 35.316 19.9131C35.316 19.9128 35.316 19.9124 35.316 19.912C35.316 19.9116 35.316 19.9113 35.316 19.9109C35.316 19.9105 35.316 19.9101 35.316 19.9098C35.316 19.9094 35.316 19.909 35.316 19.9086C35.316 19.9083 35.316 19.9079 35.316 19.9075C35.316 19.9071 35.316 19.9068 35.316 19.9064C35.316 19.906 35.316 19.9056 35.316 19.9053C35.316 19.9049 35.316 19.9045 35.316 19.9041C35.316 19.9038 35.316 19.9034 35.316 19.903C35.316 19.9026 35.316 19.9023 35.316 19.9019C35.316 19.9015 35.316 19.9011 35.316 19.9007C35.316 19.9004 35.316 19.9 35.316 19.8996C35.316 19.8992 35.316 19.8989 35.316 19.8985C35.316 19.8981 35.316 19.8977 35.316 19.8973C35.316 19.897 35.316 19.8966 35.316 19.8962C35.316 19.8958 35.316 19.8954 35.316 19.8951C35.316 19.8947 35.316 19.8943 35.316 19.8939C35.316 19.8935 35.316 19.8932 35.316 19.8928C35.316 19.8924 35.316 19.892 35.316 19.8916C35.316 19.8913 35.316 19.8909 35.316 19.8905C35.316 19.8901 35.316 19.8897 35.316 19.8893C35.316 19.889 35.316 19.8886 35.316 19.8882C35.316 19.8878 35.316 19.8874 35.316 19.887C35.316 19.8867 35.316 19.8863 35.316 19.8859C35.316 19.8855 35.316 19.8851 35.316 19.8847C35.316 19.8844 35.316 19.884 35.316 19.8836C35.316 19.8832 35.316 19.8828 35.316 19.8824C35.316 19.8821 35.316 19.8817 35.316 19.8813C35.316 19.8809 35.316 19.8805 35.316 19.8801C35.316 19.8797 35.316 19.8794 35.316 19.879C35.316 19.8786 35.316 19.8782 35.316 19.8778C35.316 19.8774 35.316 19.877 35.316 19.8767C35.316 19.8763 35.316 19.8759 35.316 19.8755C35.316 19.8751 35.316 19.8747 35.316 19.8743C35.316 19.8739 35.316 19.8735 35.316 19.8732C35.316 19.8728 35.316 19.8724 35.316 19.872C35.316 19.8716 35.316 19.8712 35.316 19.8708C35.316 19.8704 35.316 19.87 35.316 19.8697C35.316 19.8693 35.316 19.8689 35.316 19.8685C35.316 19.8681 35.316 19.8677 35.316 19.8673C35.316 19.8669 35.316 19.8665 35.316 19.8661C35.316 19.8658 35.316 19.8654 35.316 19.865C35.316 19.8646 35.316 19.8642 35.316 19.8638C35.316 19.8634 35.316 19.863 35.316 19.8626C35.316 19.8622 35.316 19.8618 35.316 19.8614C35.316 19.861 35.316 19.8607 35.316 19.8603C35.316 19.8599 35.316 19.8595 35.316 19.8591C35.316 19.8587 35.316 19.8583 35.316 19.8579C35.316 19.8575 35.316 19.8571 35.316 19.8567C35.316 19.8563 35.316 19.8559 35.316 19.8555C35.316 19.8551 35.316 19.8547 35.316 19.8543C35.316 19.8539 35.316 19.8535 35.316 19.8532C35.316 19.8528 35.316 19.8524 35.316 19.852C35.316 19.8516 35.316 19.8512 35.316 19.8508C35.316 19.8504 35.316 19.85 35.316 19.8496C35.316 19.8492 35.316 19.8488 35.316 19.8484C35.316 19.848 35.316 19.8476 35.316 19.8472C35.316 19.8468 35.316 19.8464 35.316 19.846C35.316 19.8456 35.316 19.8452 35.316 19.8448C35.316 19.8444 35.316 19.844 35.316 19.8436C35.316 19.8432 35.316 19.8428 35.316 19.8424C35.316 19.842 35.316 19.8416 35.316 19.8412C35.316 19.8408 35.316 19.8404 35.316 19.84C35.316 19.8396 35.316 19.8392 35.316 19.8388C35.316 19.8384 35.316 19.838 35.316 19.8376C35.316 19.8372 35.316 19.8368 35.316 19.8364C35.316 19.836 35.316 19.8356 35.316 19.8352C35.316 19.8348 35.316 19.8344 35.316 19.834C35.316 19.8336 35.316 19.8332 35.316 19.8328C35.316 19.8324 35.316 19.8319 35.316 19.8315C35.316 19.8311 35.316 19.8307 35.316 19.8303C35.316 19.8299 35.316 19.8295 35.316 19.8291C35.316 19.8287 35.316 19.8283 35.316 19.8279C35.316 19.8275 35.316 19.8271 35.316 19.8267C35.316 19.8263 35.316 19.8259 35.316 19.8255C35.316 19.8251 35.316 19.8247 35.316 19.8242C35.316 19.8238 35.316 19.8234 35.316 19.823C35.316 19.8226 35.316 19.8222 35.316 19.8218C35.316 19.8214 35.316 19.821 35.316 19.8206C35.316 19.8202 35.316 19.8198 35.316 19.8194C35.316 19.8189 35.316 19.8185 35.316 19.8181C35.316 19.8177 35.316 19.8173 35.316 19.8169C35.316 19.8165 35.316 19.8161 35.316 19.8157C35.316 19.8153 35.316 19.8148 35.316 19.8144C35.316 19.814 35.316 19.8136 35.316 19.8132C35.316 19.8128 35.316 19.8124 35.316 19.812C35.316 19.8116 35.316 19.8111 35.316 19.8107C35.316 19.8103 35.316 19.8099 35.316 19.8095C35.316 19.8091 35.316 19.8087 35.316 19.8083C35.316 19.8079 35.316 19.8074 35.316 19.807C35.316 19.8066 35.316 19.8062 35.316 19.8058C35.316 19.8054 35.316 19.805 35.316 19.8045C35.316 19.8041 35.316 19.8037 35.316 19.8033C35.316 19.8029 35.316 19.8025 35.316 19.8021C35.316 19.8016 35.316 19.8012 35.316 19.8008C35.316 19.8004 35.316 19.8 35.316 19.7996C35.316 19.7991 35.316 19.7987 35.316 19.7983C35.316 19.7979 35.316 19.7975 35.316 19.7971C35.316 19.7967 35.316 19.7962 35.316 19.7958C35.316 19.7954 35.316 19.795 35.316 19.7946C35.316 19.7941 35.316 19.7937 35.316 19.7933C35.316 19.7929 35.316 19.7925 35.316 19.7921C35.316 19.7916 35.316 19.7912 35.316 19.7908C35.316 19.7904 35.316 19.79 35.316 19.7895C35.316 19.7891 35.316 19.7887 35.316 19.7883C35.316 19.7879 35.316 19.7874 35.316 19.787C35.316 19.7866 35.316 19.7862 35.316 19.7858C35.316 19.7853 35.316 19.7849 35.316 19.7845C35.316 19.7841 35.316 19.7837 35.316 19.7832C35.316 19.7828 35.316 19.7824 35.316 19.782C35.316 19.7815 35.316 19.7811 35.316 19.7807C35.316 19.7803 35.316 19.7799 35.316 19.7794C35.316 19.779 35.316 19.7786 35.316 19.7782C35.316 19.7777 35.316 19.7773 35.316 19.7769C35.316 19.7765 35.316 19.776 35.316 19.7756C35.316 19.7752 35.316 19.7748 35.316 19.7743C35.316 19.7739 35.316 19.7735 35.316 19.7731C35.316 19.7726 35.316 19.7722 35.316 19.7718C35.316 19.7714 35.316 19.7709 35.316 19.7705C35.316 19.7701 35.316 19.7697 35.316 19.7692C35.316 19.7688 35.316 19.7684 35.316 19.768C35.316 19.7675 35.316 19.7671 35.316 19.7667C35.316 19.7662 35.316 19.7658 35.316 19.7654C35.316 19.765 35.316 19.7645 35.316 19.7641C35.316 19.7637 35.316 19.7633 35.316 19.7628C35.316 19.7624 35.316 19.762 35.316 19.7615C35.316 19.7611 35.316 19.7607 35.316 19.7602C35.316 19.7598 35.316 19.7594 35.316 19.759C35.316 19.7585 35.316 19.7581 35.316 19.7577C35.316 19.7572 35.316 19.7568 35.316 19.7564C35.316 19.7559 35.316 19.7555 35.316 19.7551C35.316 19.7547 35.316 19.7542 35.316 19.7538C35.316 19.7534 35.316 19.7529 35.316 19.7525C35.316 19.7521 35.316 19.7516 35.316 19.7512C35.316 19.7508 35.316 19.7503 35.316 19.7499C35.316 19.7495 35.316 19.749 35.316 19.7486C35.316 19.7482 35.316 19.7477 35.316 19.7473C35.316 19.7469 35.316 19.7464 35.316 19.746C35.316 19.7456 35.316 19.7451 35.316 19.7447C35.316 19.7442 35.316 19.7438 35.316 19.7434C35.316 19.7429 35.316 19.7425 35.316 19.7421C35.316 19.7416 35.316 19.7412 35.316 19.7408C35.316 19.7403 35.316 19.7399 35.316 19.7395C35.316 19.739 35.316 19.7386 35.316 19.7381C35.316 19.7377 35.316 19.7373 35.316 19.7368C35.316 19.7364 35.316 19.736 35.316 19.7355C35.316 19.7351 35.316 19.7346 35.316 19.7342C35.316 19.7338 35.316 19.7333 35.316 19.7329C35.316 19.7324 35.316 19.732 35.316 19.7316C35.316 19.7311 35.316 19.7307 35.316 19.7302C35.316 19.7298 35.316 19.7294 35.316 19.7289C35.316 19.7285 35.316 19.728 35.316 19.7276C35.316 19.7272 35.316 19.7267 35.316 19.7263C35.316 19.7258 35.316 19.7254 35.316 19.725C35.316 19.7245 35.316 19.7241 35.316 19.7236C35.316 19.7232 35.316 19.7227 35.316 19.7223C35.316 19.7219 35.316 19.7214 35.316 19.721C35.316 19.7205 35.316 19.7201 35.316 19.7196C35.316 19.7192 35.316 19.7188 35.316 19.7183C35.316 19.7179 35.316 19.7174 35.316 19.717C35.316 19.7165 35.316 19.7161 35.316 19.7156C35.316 19.7152 35.316 19.7148 35.316 19.7143C35.316 19.7139 35.316 19.7134 35.316 19.713C35.316 19.7125 35.316 19.7121 35.316 19.7116C35.316 19.7112 35.316 19.7107 35.316 19.7103C35.316 19.7098 35.316 19.7094 35.316 19.709C35.316 19.7085 35.316 19.7081 35.316 19.7076C35.316 19.7072 35.316 19.7067 35.316 19.7063C35.316 19.7058 35.316 19.7054 35.316 19.7049C35.316 19.7045 35.316 19.704 35.316 19.7036C35.316 19.7031 35.316 19.7027 35.316 19.7022C35.316 19.7018 35.316 19.7013 35.316 19.7009C35.316 19.7004 35.316 19.7 35.316 19.6995C35.316 19.6991 35.316 19.6986 35.316 19.6982C35.316 19.6977 35.316 19.6973 35.316 19.6968C35.316 19.6964 35.316 19.6959 35.316 19.6955C35.316 19.695 35.316 19.6946 35.316 19.6941C35.316 19.6937 35.316 19.6932 35.316 19.6928C35.316 19.6923 35.316 19.6919 35.316 19.6914C35.316 19.6909 35.316 19.6905 35.316 19.69C35.316 19.6896 35.316 19.6891 35.316 19.6887C35.316 19.6882 35.316 19.6878 35.316 19.6873C35.316 19.6869 35.316 19.6864 35.316 19.686C35.316 19.6855 35.316 19.685 35.316 19.6846C35.316 19.6841 35.316 19.6837 35.316 19.6832C35.316 19.6828 35.316 19.6823 35.316 19.6819C35.316 19.6814 35.316 19.6809 35.316 19.6805C35.316 19.68 35.316 19.6796 35.316 19.6791C35.316 19.6787 35.316 19.6782 35.316 19.6777C35.316 19.6773 35.316 19.6768 35.316 19.6764C35.316 19.6759 35.316 19.6755 35.316 19.675C35.316 19.6745 35.316 19.6741 35.316 19.6736C35.316 19.6732 35.316 19.6727 35.316 19.6722C35.316 19.6718 35.316 19.6713 35.316 19.6709C35.316 19.6704 35.316 19.6699 35.316 19.6695C35.316 19.669 35.316 19.6686 35.316 19.6681C35.316 19.6676 35.316 19.6672 35.316 19.6667C35.316 19.6663 35.316 19.6658 35.316 19.6653C35.316 19.6649 35.316 19.6644 35.316 19.664C35.316 19.6635 35.316 19.663 35.316 19.6626C35.316 19.6621 35.316 19.6616 35.316 19.6612C35.316 19.6607 35.316 19.6603 35.316 19.6598C35.316 19.6593 35.316 19.6589 35.316 19.6584C35.316 19.6579 35.316 19.6575 35.316 19.657C35.316 19.6565 35.316 19.6561 35.316 19.6556C35.316 19.6552 35.316 19.6547 35.316 19.6542C35.316 19.6538 35.316 19.6533 35.316 19.6528C35.316 19.6524 35.316 19.6519 35.316 19.6514C35.316 19.651 35.316 19.6505 35.316 19.65C35.316 19.6496 35.316 19.6491 35.316 19.6486C35.316 19.6482 35.316 19.6477 35.316 19.6472C35.316 19.6468 35.316 19.6463 35.316 19.6458C35.316 19.6454 35.316 19.6449 35.316 19.6444C35.316 19.644 35.316 19.6435 35.316 19.643C35.316 19.6426 35.316 19.6421 35.316 19.6416C35.316 19.6411 35.316 19.6407 35.316 19.6402C35.316 19.6397 35.316 19.6393 35.316 19.6388C35.316 19.6383 35.316 19.6379 35.316 19.6374C35.316 19.6369 35.316 19.6364 35.316 19.636C35.316 19.6355 35.316 19.635 35.316 19.6346C35.316 19.6341 35.316 19.6336 35.316 19.6331C35.316 19.6327 35.316 19.6322 35.316 19.6317C35.316 19.6313 35.316 19.6308 35.316 19.6303C35.316 19.6298 35.316 19.6294 35.316 19.6289C35.316 19.6284 35.316 19.6279 35.316 19.6275C35.316 19.627 35.316 19.6265 35.316 19.6261C35.316 19.6256 35.316 19.6251 35.316 19.6246C35.316 19.6242 35.316 19.6237 35.316 19.6232C35.316 19.6227 35.316 19.6223 35.316 19.6218C35.316 19.6213 35.316 19.6208 35.316 19.6204C35.316 19.6199 35.316 19.6194 35.316 19.6189C35.316 19.6184 35.316 19.618 35.316 19.6175C35.316 19.617 35.316 19.6165 35.316 19.6161C35.316 19.6156 35.316 19.6151 35.316 19.6146C35.316 19.6142 35.316 19.6137 35.316 19.6132C35.316 19.6127 35.316 19.6122 35.316 19.6118C35.316 19.6113 35.316 19.6108 35.316 19.6103C35.316 19.6098 35.316 19.6094 35.316 19.6089C35.316 19.6084 35.316 19.6079 35.316 19.6075C35.316 19.607 35.316 19.6065 35.316 19.606C35.316 19.6055 35.316 19.6051 35.316 19.6046C35.316 19.6041 35.316 19.6036 35.316 19.6031C35.316 19.6026 35.316 19.6022 35.316 19.6017C35.316 19.6012 35.316 19.6007 35.316 19.6002C35.316 19.5998 35.316 19.5993 35.316 19.5988C35.316 19.5983 35.316 19.5978 35.316 19.5973C35.316 19.5969 35.316 19.5964 35.316 19.5959C35.316 19.5954 35.316 19.5949 35.316 19.5944C35.316 19.594 35.316 19.5935 35.316 19.593C35.316 19.5925 35.316 19.592 35.316 19.5915C35.316 19.5911 35.316 19.5906 35.316 19.5901C35.316 19.5896 35.316 19.5891 35.316 19.5886C35.316 19.5881 35.316 19.5877 35.316 19.5872C35.316 19.5867 35.316 19.5862 35.316 19.5857C35.316 19.5852 35.316 19.5847 35.316 19.5842C35.316 19.5838 35.316 19.5833 35.316 19.5828C35.316 19.5823 35.316 19.5818 35.316 19.5813C35.316 19.5808 35.316 19.5803 35.316 19.5799C35.316 19.5794 35.316 19.5789 35.316 19.5784C35.316 19.5779 35.316 19.5774 35.316 19.5769C35.316 19.5764 35.316 19.5759 35.316 19.5755C35.316 19.575 35.316 19.5745 35.316 19.574C35.316 19.5735 35.316 19.573 35.316 19.5725C35.316 19.572 35.316 19.5715 35.316 19.571C35.316 19.5706 35.316 19.5701 35.316 19.5696C35.316 19.5691 35.316 19.5686 35.316 19.5681C35.316 19.5676 35.316 19.5671 35.316 19.5666C35.316 19.5661 35.316 19.5656 35.316 19.5651C35.316 19.5647 35.316 19.5642 35.316 19.5637C35.316 19.5632 35.316 19.5627 35.316 19.5622C35.316 19.5617 35.316 19.5612 35.316 19.5607C35.316 19.5602 35.316 19.5597 35.316 19.5592C35.316 19.5587 35.316 19.5582 35.316 19.5577C35.316 19.5572 35.316 19.5567 35.316 19.5562C35.316 19.5558 35.316 19.5553 35.316 19.5548C35.316 19.5543 35.316 19.5538 35.316 19.5533C35.316 19.5528 35.316 19.5523 35.316 19.5518C35.316 19.5513 35.316 19.5508 35.316 19.5503C35.316 19.5498 35.316 19.5493 35.316 19.5488C35.316 19.5483 35.316 19.5478 35.316 19.5473C35.316 19.5468 35.316 19.5463 35.316 19.5458C35.316 19.5453 35.316 19.5448 35.316 19.5443C35.316 19.5438 35.316 19.5433 35.316 19.5428C35.316 19.5423 35.316 19.5418 35.316 19.5413C35.316 19.5408 35.316 19.5403 35.316 19.5398C35.316 19.5393 35.316 19.5388 35.316 19.5383C35.316 19.5378 35.316 19.5373 35.316 19.5368C35.316 19.5363 35.316 19.5358 35.316 19.5353C35.316 19.5348 35.316 19.5343 35.316 19.5338C35.316 19.5333 35.316 19.5328 35.316 19.5323C35.316 19.5318 35.316 19.5313 35.316 19.5308C35.316 19.5303 35.316 19.5298 35.316 19.5293C35.316 19.5288 35.316 19.5283 35.316 19.5278C35.316 19.5273 35.316 19.5268 35.316 19.5263C35.316 19.5257 35.316 19.5252 35.316 19.5247C35.316 19.5242 35.316 19.5237 35.316 19.5232C35.316 19.5227 35.316 19.5222 35.316 19.5217C35.316 19.5212 35.316 19.5207 35.316 19.5202C35.316 19.5197 35.316 19.5192 35.316 19.5187C35.316 19.5182 35.316 19.5177 35.316 19.5171C35.316 19.5166 35.316 19.5161 35.316 19.5156C35.316 19.5151 35.316 19.5146 35.316 19.5141C35.316 19.5136 35.316 19.5131 35.316 19.5126C35.316 19.5121 35.316 19.5116 35.316 19.5111C35.316 19.5105 35.316 19.51 35.316 19.5095C35.316 19.509 35.316 19.5085 35.316 19.508C35.316 19.5075 35.316 19.507 35.316 19.5065C35.316 19.506 35.316 19.5054 35.316 19.5049C35.316 19.5044 35.316 19.5039 35.316 19.5034C35.316 19.5029 35.316 19.5024 35.316 19.5019C35.316 19.5014 35.316 19.5008 35.316 19.5003C35.316 19.4998 35.316 19.4993 35.316 19.4988C35.316 19.4983 35.316 19.4978 35.316 19.4973C35.316 19.4967 35.316 19.4962 35.316 19.4957C35.316 19.4952 35.316 19.4947 35.316 19.4942C35.316 19.4937 35.316 19.4931 35.316 19.4926C35.316 19.4921 35.316 19.4916 35.316 19.4911C35.316 19.4906 35.316 19.4901 35.316 19.4895C35.316 19.489 35.316 19.4885 35.316 19.488H33.916ZM34.5387 19.4083C33.673 19.5045 32.917 19.7551 32.3812 20.2496L33.3308 21.2784C33.5577 21.0689 33.9751 20.8795 34.6933 20.7997L34.5387 19.4083ZM32.3812 20.2496C31.7851 20.7999 31.5956 21.6179 31.6285 22.5059L33.0275 22.4541C33.0017 21.7581 33.1643 21.4321 33.3308 21.2784L32.3812 20.2496ZM31.6295 22.5264L33.0375 43.7344L34.4345 43.6416L33.0265 22.4336L31.6295 22.5264ZM33.5146 44.3521C34.5529 44.6982 35.7026 44.8979 36.9579 44.9592L37.0261 43.5608C35.876 43.5047 34.8551 43.3232 33.9574 43.0239L33.5146 44.3521Z" fill="black"/>
</svg>
